<?xml version="1.0" encoding="UTF-8" standalone="no"?>
<!-- Created with Inkscape (http://www.inkscape.org/) -->

<svg
   version="1.1"
   id="svg2"
   width="697.4267"
   height="445.35999"
   viewBox="0 0 697.4267 445.35999"
   sodipodi:docname="final_fantasy_7.eps"
   xmlns:inkscape="http://www.inkscape.org/namespaces/inkscape"
   xmlns:sodipodi="http://sodipodi.sourceforge.net/DTD/sodipodi-0.dtd"
   xmlns="http://www.w3.org/2000/svg"
   xmlns:svg="http://www.w3.org/2000/svg">
  <defs
     id="defs6">
    <clipPath
       clipPathUnits="userSpaceOnUse"
       id="clipPath48">
      <path
         d="m 3246.96,203.859 c 0,-24.519 -19.89,-44.41 -44.41,-44.41 h -127.42 c -24.54,0 -44.43,19.891 -44.43,44.41 v 127.422 c 0,24.528 19.89,44.43 44.43,44.43 h 127.42 c 24.52,0 44.41,-19.902 44.41,-44.43 z"
         id="path46" />
    </clipPath>
    <radialGradient
       fx="0"
       fy="0"
       cx="0"
       cy="0"
       r="1"
       gradientUnits="userSpaceOnUse"
       gradientTransform="matrix(286.576,0,0,-286.576,3094.05,142.7)"
       spreadMethod="pad"
       id="radialGradient60">
      <stop
         style="stop-opacity:1;stop-color:#fbd55e"
         offset="0"
         id="stop50" />
      <stop
         style="stop-opacity:1;stop-color:#fbd55e"
         offset="0.0969388"
         id="stop52" />
      <stop
         style="stop-opacity:1;stop-color:#e4464f"
         offset="0.44898"
         id="stop54" />
      <stop
         style="stop-opacity:1;stop-color:#cd1995"
         offset="0.678571"
         id="stop56" />
      <stop
         style="stop-opacity:1;stop-color:#615db4"
         offset="1"
         id="stop58" />
    </radialGradient>
  </defs>
  <sodipodi:namedview
     id="namedview4"
     pagecolor="#ffffff"
     bordercolor="#000000"
     borderopacity="0.25"
     inkscape:showpageshadow="2"
     inkscape:pageopacity="0.0"
     inkscape:pagecheckerboard="0"
     inkscape:deskcolor="#d1d1d1" />
  <g
     id="g8"
     inkscape:groupmode="layer"
     inkscape:label="ink_ext_XXXXXX"
     transform="matrix(1.3333333,0,0,-1.3333333,0,445.36)">
    <g
       id="g10"
       transform="scale(0.1)">
      <path
         d="m 717.734,227.07 c 0.399,0.102 1,0.211 1.602,0.309 0,-0.098 -0.703,-0.207 -1.602,-0.309"
         style="fill:#a5d943;fill-opacity:1;fill-rule:nonzero;stroke:none"
         id="path12" />
      <path
         d="m 2129.83,2573.07 c -4.2,2.5 12.01,-2.59 0,0 v 0"
         style="fill:#a5d943;fill-opacity:1;fill-rule:nonzero;stroke:none"
         id="path14" />
      <path
         d="m 2451.44,2628.68 c -0.81,-0.51 -2.21,-1.21 -4.4,-2.3 0.4,0.39 2.99,1.69 4.4,2.3"
         style="fill:#a5d943;fill-opacity:1;fill-rule:nonzero;stroke:none"
         id="path16" />
      <path
         d="m 2921.84,1736.38 c -0.61,-0.41 -1.21,-0.9 -2.01,-1.5 0,0.2 1.11,0.99 2.01,1.5"
         style="fill:#a5d943;fill-opacity:1;fill-rule:nonzero;stroke:none"
         id="path18" />
      <path
         d="m 3067.24,2643.17 c 0.09,0.2 0.3,0.4 0.59,0.6 l 1.3,0.5 c -0.6,-0.3 -1.49,-0.9 -1.89,-1.1"
         style="fill:#a5d943;fill-opacity:1;fill-rule:nonzero;stroke:none"
         id="path20" />
      <path
         d="m 3177.43,1878.88 1.6,1.4 c -0.8,-0.8 -1.39,-1.2 -1.6,-1.4"
         style="fill:#a5d943;fill-opacity:1;fill-rule:nonzero;stroke:none"
         id="path22" />
      <path
         d="m 3449.13,2890.07 c 0.7,0 -1.2,-1.59 -1.59,-1.59 0.1,0.2 0.59,0.69 1.59,1.59"
         style="fill:#a5d943;fill-opacity:1;fill-rule:nonzero;stroke:none"
         id="path24" />
      <path
         d="m 4496.53,3204.77 c 2.41,2.5 11.01,7 0,0 v 0"
         style="fill:#a5d943;fill-opacity:1;fill-rule:nonzero;stroke:none"
         id="path26" />
      <path
         d="m 2524.74,1018.18 c 0,0 -10.2,-7.71 -22.9,-25.61 l -25.6,-19.5 -26.81,-31.492 -11.5,-22.996 -22.9,-12.812 h -17.9 c 0,0 0,-10.2 -22.99,-15.301 -23.01,-5.098 0,15.301 0,15.301 0,0 7.7,12.812 20.4,25.601 0,0 17.9,15.301 38.29,33.109 l 20.5,20.489 22.91,25.501 22.99,28.11 25.51,17.9 10.29,-23.01 z m -201.71,-74.102 c 0,0 3.41,0.891 -4.2,-5.098 -7.7,-5.91 -7.7,-5.91 -7.7,-5.91 0,0 -3.3,-2.699 -7.6,-4.3 -9.39,-3.399 -9.39,-3.399 -9.39,-3.399 l -11.9,-6.789 h -12.81 l -10.2,-28.91 -2.5,-32.391 -12.79,-28.109 -2.61,-31.891 c 0,0 -7.59,-6.41 -15.3,-16.601 -7.6,-10.211 -20.4,-30.61 -20.4,-30.61 l -12.8,-10.191 c 0,-15.399 25.6,0 25.6,0 l 19.1,20.402 16.61,15.289 17.9,21.711 c 12.7,6.391 16.49,5 25.49,14.09 15.3,15.301 25.5,17.801 25.5,17.801 -10.1,-5.094 0,-31.891 0,-31.891 0,0 -43.4,-49.812 -46.79,-51.511 -3.41,-1.688 -8.51,-5.891 -8.51,-5.891 l -12.7,-6.809 -9.4,-14.492 c -11.09,-6.808 -11.09,-6.808 -11.09,-6.808 l -11.01,-9.391 c -10.2,-6.809 -10.2,-6.809 -10.2,-6.809 0,0 -7.7,-2.5 -10.3,-5.101 -6.79,-6.797 -0.79,0.902 -6.79,-6.797 -5.91,-7.703 -3.41,-7.703 -3.41,-7.703 0,0 -7.6,-6.797 -10.99,-10.199 0,0 -6.01,-5.09 -5.11,-9.29 l 7.61,-3.41 c 0,0 6.79,0 8.49,1.711 l 6,-0.91 -0.9,-12.793 -3.39,-6.808 -7.61,-7.598 -10.29,-8.492 -13.61,-11.11 -20.39,-23.8 v -5.989 c 0,0 15.29,1.699 21.3,4.301 5.89,2.5 2.5,0.797 5.89,2.5 l 0.8,0.398 9.51,3.891 10.99,0.801 c 0,0 0.91,-11.891 -0.8,-11.891 0,0 -11.9,-9.312 -15.3,-11.109 -3.5,-1.692 -6.9,-3.391 -10.29,-5.891 l -11,-10.211 -11.1,-10.191 v -9.41 l -5.11,-4.297 v -6.793 c 0,0 0,0.902 5.11,1.699 5.09,0.902 5.09,0.902 5.09,0.902 -0.8,-5.101 -5.09,-13.609 -5.09,-13.609 l -5.11,-5.101 v -5.989 l -12.79,-8.511 -6.81,-8.489 -10.2,-6.812 -9.3,-8.5 -5.99,-5.09 -5.11,-6.008 -6,-4.199 -8.5,-8.594 -5.9,-10.207 -6.79,-7.601 7.59,-5.989 h 13.6 l 9.4,5.989 6,2.5 6.8,3.402 8.51,-3.402 v -8.489 l -4.31,-10.211 c 0,0 1.7,-0.898 -3.39,-6.789 -5.11,-6.011 -5.11,-6.011 -5.11,-6.011 0,0 -1.7,2.609 -10.2,-5.098 -8.5,-7.59 2.5,-1.703 -8.5,-7.59 -5.79,-3.113 -7.2,-3.711 -7.2,-3.512 l -13.19,-10.101 -8.61,-9.391 -8.5,-1.699 -6.79,-6.008 -10.21,-1.699 -5.1,5.098 12.81,26.41 -8.51,2.59 c 0,0 3.4,3.402 -4.3,-0.891 l -11.1,-11.91 h -8.5 l -5.9,0.902 -2.6,5.109 c 0,0 -5.1,7.602 -0.79,10.989 l 8.49,9.41 c 0,0 5.1,-0.91 1.71,5.101 -2.61,4.5 -3.21,5.59 -3.3,5.891 l -0.11,0.098 c -5.09,1.703 -9.4,-2.598 -9.4,-2.598 l -6.79,-3.391 -7.61,-6.011 -6,-4.199 -4.29,-3.399 -5.91,-6.789 -6,-5.102 -28.09,-22.21 -9.31,4.308 -2.6,5.902 -7.6,4.29 -9.4,-3.399 -10.2,-8.492 -6.8,-7.707 -4.8,-4.793 c 0.51,0.801 1.11,2.293 -7.1,-1.109 -10.2,-4.29 -10.2,-4.29 -10.2,-4.29 l -8.6,-5.91 -5.89,-3.398 -8.5,-3.5 h -6.81 l -6.79,-0.801 0.79,10.199 6,13.602 9.31,9.406 9.39,10.192 10.2,9.41 6.81,6.789 10.19,10.211 c 0,0 6,5.898 11.11,11.89 5.09,6 0.8,2.602 5.09,6 l 10.2,11.012 c 0,0 95.31,80 97.01,83.387 1.69,3.402 7.7,7.711 7.7,7.711 0,0 3.39,0.789 16.99,12.789 13.61,11.91 17,14.41 17,14.41 l 6.01,5.992 7.59,10.207 7.7,9.391 c 0,0 0,4.203 5.11,8.511 2.3,1.891 1.99,1.2 1.99,0.989 0.11,0.211 1.2,1.703 5.2,6.613 9.8,11.887 -11.39,-9.301 0,5.09 11.5,14.5 11.5,14.5 11.5,14.5 0,0 0.91,-2.594 6.8,7.699 6,10.211 6,10.211 6,10.211 l 4.31,6.789 4.2,8.508 5.09,13.59 6,7.711 c 0,0 4.2,4.199 8.51,10.992 4.19,6.797 1.69,1.699 4.19,6.797 l 41.7,63.91 6,8.492 3.4,10.207 c 0,0 -7.7,-6.808 4.3,7.594 7.91,9.598 5.7,5 5.61,4.297 0.2,0.211 1,1.301 2.9,4.312 7.59,11.891 7.59,11.891 7.59,11.891 l 6,11.008 c 0,0 5.1,8.492 7.7,11.09 2.5,2.601 -0.89,-0.801 3.4,5.101 4.2,6.008 5.91,11.098 5.91,11.098 l 4.29,7.601 3.4,9.41 2.5,7.692 c 0,0 -0.79,-6 4.3,10.207 3.1,9.902 2.7,7.293 2.7,6.793 0.2,0.207 0.5,1.398 1.5,5.098 3.41,12.71 3.41,12.71 3.41,12.71 l 1.7,11.09 4.29,11.102 c 0,0 0.8,-1.703 4.3,11.91 2.3,9.098 2.3,10.59 2.01,10.59 l 6.49,11.508 5.1,5.992 5.91,6.797 c 0,0 -19.51,-9.391 8.49,10.203 28.1,19.598 -21.19,-5.09 7.7,9.398 18.1,8.91 22.8,11.41 23.81,11.899 l 0.09,0.101 8.4,3.301 12.8,2.5 c 6.81,-1.699 2.6,4.309 6.81,-1.699 l 0.89,-27.192 z m -566.79,1127.702 -13.6,-1.7 -30.6,1.7 -17.01,1.69 c 0,0 -17.1,3.4 -39.2,10.2 -22.09,6.81 -28.9,17 -28.9,17 -10.2,8.5 5.11,-3.4 -18.8,6.8 -23.79,10.2 0,0 -13.59,8.5 -13.61,8.51 -13.61,5.1 -13.61,5.1 l -22.1,8.61 c 0,0 -11.9,5.09 -42.59,15.29 -30.61,10.2 -20.41,10.2 -20.41,10.2 0,0 1.7,10.2 11.9,23.8 6.61,8.7 15.3,1.7 15.3,1.7 l 15.4,-1.7 c 8.5,-1.7 42.5,-15.3 42.5,-15.3 h 8.5 l 11.9,-3.39 17.1,-5.11 c 3.41,-5.09 13.61,-3.39 13.61,-3.39 0,0 0,0 15.29,-3.41 15.31,-3.4 0,0 11.9,-8.49 11.9,-8.5 20.4,-5.11 20.4,-5.11 0,0 0,0 18.8,-3.39 18.7,-3.4 0,0 17,-1.7 17.01,-1.7 17.01,-8.61 17.01,-8.61 l 13.59,-8.49 15.3,-8.5 3.41,-13.6 z m -234.91,-1171.1 -15.3,-5.11 -30.6,-20.39 c 0,0 0,0 -10.2,-12.801 l -17.9,-17.899 -38.3,-15.308 V 816.48 c 0,0 -20.4,-5.109 -38.3,-19.199 -6.7,-5.301 -5.1,-8.91 -5.1,-16.601 0,-7.61 -17.9,-30.61 -17.9,-30.61 l -51,-10.191 33.1,38.301 12.81,19.101 c 0,0 7.69,8.891 17.89,19.199 10.2,10.192 15.3,28 15.3,28 h 15.3 l 17.9,25.59 c 0,0 17.9,12.711 35.71,20.399 0,0 15.4,10.211 22.99,10.211 7.7,0 25.6,5.09 25.6,5.09 l 28,12.812 z m -255.3,-86.809 -15.3,-16.59 c 0,0 -15.3,-8.91 -33.2,-19.101 l -35.69,-28.11 h -43.41 l 5.1,15.301 28,30.598 c 0,0 0,0 35.8,12.801 l 20.4,5.101 20.4,12.801 17.9,17.808 c 0,0 0,0 15.3,0 0,0 -5.09,-12.71 -15.3,-30.609 z m -349.796,-260.5 -20.398,-15.191 -20.402,-10.309 -15.297,0.098 c 0,0 -23.004,-2.598 -35.801,20.402 0,0 0,0 7.699,12.707 l 23,17.902 h 76.496 z M 5221.84,3334.77 c -21.3,5.9 10.99,4.2 -10.31,5.11 -21.2,0.79 -13.6,0 -13.6,0 l -129.3,-30.71 -29.79,1.7 c 0,0 -11.91,-0.79 -20.4,-0.79 -8.61,0 3.4,1.7 -8.61,0 -11.9,-1.71 -0.8,4.2 -11.9,-1.71 -11,-5.99 -11,-5.99 -11,-5.99 l -11.1,-6.81 -9.39,-3.39 -13.61,-8.5 -21.3,-10.2 -10.19,-8.51 c 0,0 6.79,-11.09 -13.61,-20.49 -20.4,-9.3 -30.59,-11.91 -30.59,-11.91 l -10.21,-3.4 -14.5,-2.5 -17,-6 -10.1,-8.4 c 0.21,0.41 0.5,1.5 -9.5,-3.5 -20.4,-10.2 -20.4,-10.2 -20.4,-10.2 l -4.3,-11.9 c 0,0 3.4,-1.7 -5.1,-5.1 -0.99,-0.5 -1.69,-0.7 -2.09,-0.7 0.3,0.4 0.99,0.8 1.49,1.2 -1.09,-0.6 -3.5,-1.69 -7.89,-3.9 -18.7,-9.4 -35.7,-16.19 -35.7,-16.19 l -10.31,-5.1 -9.29,-6.01 -10.21,-5.1 -17.9,-5.89 -11.09,-5.11 -4.41,-1.89 c 3.11,1.5 8.7,4.5 -10.9,-1.5 -15.4,-4.81 -9.2,-0.61 -7.19,0.69 -0.8,-0.4 -2.71,-1.4 -6.41,-3.3 -3.7,-1.89 -5.19,-2.59 -5.4,-2.59 1.01,0.89 8.11,5.09 9.31,6.09 -0.8,-0.29 -3.61,-1.79 -9.91,-5.2 -12.9,-7 -16.79,-9.39 -17.19,-10 0.4,0 3.59,1.5 3.59,1.5 0,0 12.8,-0.89 -14.39,-6.8 -8.91,-2 -12.01,-2.6 -12.6,-2.89 0.79,0 5.9,0.8 -4.5,-2.21 -12.9,-3.69 -14.71,-2.9 -14.71,-2.19 -0.9,-0.91 -4.2,-3.81 -13.29,-3.81 -11.1,0 2.5,3.4 -11.1,0 -9.11,-2.3 2.8,-1.1 3.89,-1.1 -0.59,-0.19 -3.19,-0.5 -9.9,-1.4 -25.5,-3.4 -3.4,-2.6 -20.39,-3.4 -9.01,-0.5 -8.01,-0.89 -6.91,-1.09 -0.7,0 -2,0.09 -4.19,0.2 -12.71,0.89 1.69,-5.11 -9.3,0 -11.11,5.09 -11.91,1.69 -11.91,10.19 0,8.5 -3.39,1.7 0,8.5 3.4,6.81 3.4,6.81 3.4,6.81 l 9.3,6 10.2,5.1 c 0,0 -0.8,1.7 10.31,5.99 10.99,4.2 0,1.7 10.99,4.2 11.11,2.6 -7.59,0 11.11,2.6 13.7,1.8 15.49,2.3 15.49,2.5 l 12.6,1.7 c 0,0 20.4,1.7 29.81,5.1 9.29,3.41 9.29,3.41 9.29,3.41 l 11.11,3.4 9.29,2.6 12.01,6.79 c 0,0 8.49,0.91 5.09,7.7 -3.39,6.8 -3.39,6.8 -3.39,6.8 l -16.21,1.7 c 0,0 -11.1,2.5 -19.6,0 -0.49,-0.2 -0.8,-0.2 -0.99,-0.2 0.99,1 6.99,3.91 10.69,5.8 -3,-1.19 -8.59,-3.8 -18.19,-8.19 -6.91,-3.11 -10.91,-5.11 -13.01,-6.31 -0.1,0 -0.1,-0.09 -0.1,-0.09 -41.6,-13.91 -32.29,-12.3 -42.19,-14 -10.21,-1.7 -5.1,0 -10.21,-1.7 l -7.69,-0.9 c -2.5,7.69 -8.51,6 -0.81,13.69 7.6,7.6 -5.09,2.5 7.6,7.6 12.81,5.1 4.3,2.6 12.81,5.1 8.49,2.6 8.49,2.6 8.49,2.6 0,0 -11.09,-8.49 9.41,2.5 5.19,2.81 7.19,4.01 7.59,4.31 -0.49,0 -2.8,-1.11 -3.49,-1.3 0.5,0.39 2.39,1.4 6.89,3.8 19.6,10.3 7.71,1.7 19.6,10.3 2.4,1.7 3.6,2.59 4.01,3 l 0.09,0.09 c 0,0 0,0 0.1,0.11 0.51,0.2 1.1,0.59 1.81,1 6.79,4.09 3.4,2.89 1.2,1.99 0.9,0.51 2.39,1.21 4.7,2.3 2.99,1.41 4.6,2.21 5.3,2.6 -0.61,-0.19 -1.51,-0.5 -2,-0.7 0.8,0.4 2.79,1.31 6.89,3.2 4.1,1.91 6.01,2.7 6.7,3.11 -0.5,-0.11 -1.59,-0.61 -2.29,-0.8 0.8,0.5 2.99,1.6 7.5,3.59 18.7,8.6 13.3,7.21 12.19,6.91 l 12.5,7.6 11.91,8.5 c 0,0 50.29,9.4 2.59,7.69 -47.7,-1.7 -56.2,-8.49 -68.89,-13.69 -0.8,-0.31 -1.31,-0.51 -1.51,-0.71 0.1,0 0.4,0.11 0.71,0.11 -4.2,-1.5 -9.31,-3.21 -15.4,-5.31 -74.91,-25.5 -78.3,-26.39 -78.3,-26.39 0,0 -3.4,-1.7 -10.21,-4.2 -0.4,-0.1 -0.59,-0.2 -0.8,-0.41 0.51,0.11 1.6,0.5 2.71,0.8 -1.8,-0.69 -4.6,-1.6 -8.71,-2.99 -9.29,-3.11 -10.19,-2.21 -8.7,-0.61 -0.9,-0.6 -2,-1.2 -3.2,-1.99 -24.7,-15.31 -24.7,-16.11 -31.49,-18.71 -6.8,-2.5 -6.8,-2.5 -6.8,-2.5 0,0 -4.31,1.7 -15.4,-7.69 -11.01,-9.4 30.69,-18.7 -28.11,-17.9 -58.7,0.9 -91.89,-19.51 -91.89,-19.51 l -17.8,-2.59 c 0,0 5.89,-4.2 -6.01,0 -11.89,4.29 -11.89,4.29 -11.89,4.29 l 0.8,9.3 h -0.1 c 0.19,0.51 1.49,1.91 6.09,6.01 7.71,6.8 4.31,0 7.71,6.8 3.4,6.79 3.4,6.79 3.4,6.79 l -10.31,4.31 -20.4,-1.7 -11.89,-10.3 -9.81,-5.61 c 0.8,0.71 1.6,1.9 -11.5,-2.9 -16.09,-5.9 -16.09,-5.9 -16.09,-5.9 0,0 -8.51,-0.9 -24.7,-8.5 -16.2,-7.7 -16.2,-7.7 -16.2,-7.7 l -6.81,-6.79 c 0,0 28.91,11.09 -9.39,-7.71 -16.81,-8.2 -17.2,-7.6 -14.7,-5.7 -1.2,-0.69 -2.9,-1.59 -4.81,-2.8 -22.69,-13.59 -24.9,-14.2 -24.9,-13.79 -2.6,-1.11 -36.49,-16 -38.99,-15.1 -2.5,0.8 -11.01,-0.9 -11.01,-0.9 l -9.39,-5.11 c 0,0 -1.7,-1.7 -10.21,-5.1 -8.49,-3.39 -8.49,-3.39 -8.49,-3.39 0,0 -16.21,-5.91 -25.5,-5.11 -9.41,0.9 0,3.4 -9.41,0.9 -9.4,-2.6 -9.4,-2.6 -9.4,-2.6 0,0 -5.9,-2.5 -11,-5.89 l -11.1,-6 -7.7,-4.3 -74,-46.81 -15.29,-3.4 -17,-2.5 -5,-2.5 c 1.09,0.8 9.5,7.01 -12.9,-2.6 -23.8,-10.19 -32.41,-15.39 -32.41,-15.39 l -10.19,-9.3 c 0,0 4.29,-6.01 -14.41,-10.21 -18.8,-4.29 -18.8,-4.29 -18.8,-4.29 l -16.1,-4.21 c 0,0 2.5,-0.9 -8.5,-3.4 -11.1,-2.59 -0.89,5.9 -11.1,-2.59 -10.19,-8.5 1.7,0 -10.19,-8.5 -11.91,-8.5 -10.21,-6.8 -11.91,-8.5 -1.7,-1.7 -15.29,-10.21 -15.29,-10.21 0,0 -27.31,-16.99 -32.4,-20.49 0,0 -5.1,-5.1 -11.91,-7.6 -0.9,-0.31 -1.3,-0.5 -1.39,-0.5 0.3,0.29 1.39,0.89 2.29,1.4 -1.49,-0.6 -3.8,-1.71 -7.69,-3.51 -12.71,-5.79 -10.31,-3.7 -9.7,-3.09 -0.4,-0.11 -1.6,-0.9 -4.81,-2.81 -6.2,-3.8 -8.6,-4.8 -9.69,-5.39 l -0.1,-0.1 c -0.11,0 -0.21,0 -0.3,-0.1 -0.9,-0.4 -1.11,-0.6 -2.6,-2.11 -0.21,-0.19 -0.3,-0.39 -0.51,-0.49 -7.5,-6.01 6.1,2 -8.1,-6.3 -14.4,-8.5 -14.4,-8.5 -14.4,-8.5 l -9.39,-6.81 -6.8,-7.7 c 0,0 -6.01,-3.4 -17.9,-8.49 -11.91,-5.11 14.49,-5.11 -11.91,-5.11 -26.39,0 -5.89,-0.8 -5.89,-0.8 0,0 -24.7,0 -28.11,-0.9 l -56.99,-25.5 -19.6,-9.4 -29.01,-14.49 -12.7,-5.11 c 0,0 -11.9,-3.39 -15.29,-6.8 0,0 -1.7,-5.9 -12.81,-10.2 -11.1,-4.19 -0.89,-0.8 -11.1,-4.19 -10.2,-3.41 -10.2,-3.41 -10.2,-3.41 0,0 -2.5,-2.59 -17.9,-9.4 -15.3,-6.79 -6.79,-3.39 -15.3,-6.79 -8.49,-3.4 -0.8,0.79 -8.49,-3.4 -7.6,-4.31 -7.6,-4.31 -7.6,-4.31 0,0 -49.41,-23.8 -55.4,-25.5 -5.91,-1.69 -14.41,-5.09 -14.41,-5.09 l -8.49,-5.1 -18.8,-10.21 c 0,0 1.7,2.5 -10.21,-4.29 -2.8,-1.71 -3.8,-2.31 -4,-2.7 0.11,0 0.51,0.09 0.91,0.2 -0.8,-0.5 -3.21,-1.61 -8.8,-4.31 -19.61,-9.39 -2.5,0 -12.8,-5.09 -10.21,-5.1 -10.21,-5.1 -10.21,-5.1 l -16.99,-9.4 -6.01,-2.5 -8.49,-6.81 c 0,0 -7.61,-8.5 -11.91,-6 -4.2,2.6 -8.49,6.8 -8.49,6.8 l -20.4,-11.9 c 0,0 -1.81,-0.8 -6.81,-6.8 -9.4,-11.09 -3.4,-5.99 -9.4,-11.09 -5.89,-5.11 -5.89,-5.11 -5.89,-5.11 l -29.81,-12.69 -7.69,-0.91 -11.91,-2.5 -20.4,-5.99 -5.99,-1.71 c 0,0 -3.4,-2.59 -10.21,-1.7 -6.8,0.91 0,-3.39 -6.8,0.91 -6.79,4.2 -6.79,4.2 -6.79,4.2 5.9,11.89 -9.41,0.89 5.9,11.89 15.4,11.11 7.69,6.8 19.59,14.5 6,3.81 5.31,3.81 5,3.81 0.2,0.3 1.61,1.1 6.9,3.8 7.5,4 6.81,3.2 6.71,2.89 0.4,0.2 2.1,1.21 7.79,4.81 16.2,10.19 1.7,2.59 16.2,10.19 14.41,7.7 14.41,7.7 14.41,7.7 l 14.5,7.61 10.29,4.39 c 1.81,1.41 6.81,5.11 18.61,13.5 17.19,12 8.7,8.01 4.19,5.9 1.21,0.8 3.21,1.9 6.11,3.5 25.5,14.4 25.5,17.01 25.5,17.01 l 5.89,3.39 6.91,5.11 c 0,0 -0.91,-3.41 18.69,9.39 12.5,8.11 13.51,8.61 12.61,7.91 9.89,6 61.3,37.7 67.39,42.29 6.81,5.11 9.31,7.61 17.8,11.01 8.61,3.4 13.7,5.99 13.7,5.99 0,0 -2.59,-5.99 10.2,7.7 4,4.4 6.1,6.6 7,7.7 -0.29,-0.1 -0.59,-0.4 -0.8,-0.6 l 10.8,14.11 2.61,7.7 3.4,9.39 4.2,7.61 14.5,6.79 c 0,0 -4.31,-1.7 9.3,4.31 13.7,5.9 0.89,0 13.7,5.9 12.69,6 3.39,1.69 12.69,6 9.41,4.3 9.41,4.3 9.41,4.3 0,0 2.5,-1.7 11.89,3.39 9.4,5.1 9.4,5.1 9.4,5.1 l 8.5,1.71 8.51,3.39 c 0,0 -6.01,-0.89 10.99,5.9 17.1,6.81 -6.79,-10.2 17.1,6.81 13.21,9.5 13.11,10 12.31,9.79 0.59,0.3 1.7,0.9 3.8,2.21 2.8,1.59 3.99,2.09 4.39,2.09 0.8,0.8 1.81,1.7 3.3,3 2.4,2.11 3.8,3.4 4.5,3.81 -0.49,-0.61 -0.09,-0.61 5.71,3.79 13.59,10.2 8.49,8.5 8.49,8.5 l 12.81,5.1 7.59,5.11 c 0,0 2.6,0.9 2.6,7.69 0,6.81 0.91,4.31 0,6.81 0,0 -14.49,-3.4 -19.6,-8.5 -5.1,-5.1 -11.89,-8.5 -16.09,-10.2 l -15.4,-5.11 c 0,0 2.59,-1.7 -5.11,-6 -7.6,-4.19 -4.2,-4.19 -7.6,-4.19 0,0 -0.5,8.19 2.5,12.69 3.4,5.11 3.4,5.11 3.4,5.11 -7.6,4.3 1.7,6 -7.6,4.3 -5.8,-1.11 8.3,6.39 9.81,7.29 -0.8,-0.2 -5.8,-2.6 -19.2,-8.99 -42.5,-20.4 -51.91,-26.4 -51.91,-26.4 l -12.8,-5.9 -19.49,-14.5 -12.8,-8.51 -13.61,-6.8 -12.8,-5.1 -11,-4 c 1.51,0.41 2.9,0.7 -12.8,-4.59 -20.5,-6.8 -6.8,0 -20.5,-6.8 -13.6,-6.81 -8.49,-5.11 -13.6,-6.81 0,0 0,0 -0.1,-0.1 -0.29,-0.39 -2.1,-2.09 -11.8,-5.8 -10.99,-4.3 -10.99,-4.3 -10.99,-4.3 0,0 1.7,-0.79 -16.2,-7.6 -17.9,-6.89 -1.7,2.5 -17.9,-6.89 -16.2,-9.3 -21.3,-13.61 -25.51,-15.31 -4.3,-1.7 -109.8,-45.9 -109.8,-45.9 l -50.2,-16.2 c 0,0 -6,0 -11.9,-2.59 -5.99,-2.5 -13.7,-6.8 -13.7,-6.8 l -17.8,-7.61 c 0,0 -0.9,3.41 -10.19,-3.4 -9.41,-6.8 -9.41,-6.8 -9.41,-6.8 0,0 -11.09,-11.89 -15.29,-13.59 l -18.7,-12 -17.9,-9.31 c 0,0 -4.31,-2.6 -16.2,-7.7 -11.91,-5.09 -23,-10.99 -23,-10.99 l -17.81,-8.6 c 0,0 -15.4,-5.9 -25.6,-11.01 -10.2,-5.1 -13.59,-9.4 -18.69,-5.1 l -10.21,14.41 c 0,0 -7.69,6.8 2.5,17.89 10.31,11.1 23,17 23,17 l 18.8,15.41 c 0,0 0.8,1.7 7.61,5.9 6.79,4.29 27.19,16.19 36.6,22.1 9.39,6 14.49,8.5 14.49,8.5 l 11.01,5.2 13.7,7.59 40,21.3 17.79,9.41 14.71,5.7 c -1.7,-0.31 -5.11,-0.61 17.69,7.89 17.81,6.7 3.5,2.4 0.4,1.6 1.11,0.51 4.2,1.51 10.6,3.5 31.5,10.21 4.31,-0.9 20.51,5.9 9.1,3.81 8.49,3.1 7.9,2.61 0.4,0.2 1.3,0.69 3.09,1.7 9.41,5.1 -10.99,-4.31 9.41,5.1 9.29,4.29 9.89,4.09 9.2,3.4 0.9,0.49 2.19,1.29 4.39,2.6 14.5,8.49 14.5,8.49 14.5,8.49 0,0 23.8,5.1 4.2,7.6 -19.6,2.6 -24.5,-0.19 -30.59,-3.4 -17.9,-9.29 -17.9,-9.29 -17.9,-9.29 0,0 -11.11,-1.7 -23.8,-12 -12.81,-10.21 -12.81,-10.21 -12.81,-10.21 0,0 -1.69,-1.7 -9.29,-5.9 -7.71,-4.3 13.59,2.5 -7.71,-4.3 -21.3,-6.79 -21.3,-6.79 -21.3,-6.79 l -17.9,-6 c 0,0 -18.7,-6.8 -27.19,-10.2 -8.51,-3.41 -16.2,-5.91 -16.2,-5.91 l -15.31,-0.9 -14.39,-8.5 c 0,0 0.8,-2.5 -6.91,-5.9 -7.59,-3.39 -7.59,-3.39 -7.59,-3.39 l -90,-34.11 -14.7,-5.09 -25.51,-16.2 -27.29,-12.71 -14.41,-7.7 -18.8,-10.19 -20.4,-11.11 -16.99,-10.2 -14.51,-7.6 -14.4,-4.29 5.1,14.49 18.5,27.21 15.51,8.5 12.8,13.6 20.4,23.9 19.6,13.6 29.79,15.29 1.7,-12.79 c 0,0 -4.29,-11.01 -6.79,-15.31 -2.6,-4.2 -5.1,-7.6 -5.1,-7.6 l 18.69,6.81 17,15.3 2.61,6.8 6.8,6.79 c 0,0 -1.3,3.41 10.4,8.5 11.7,5.11 11.7,5.11 11.7,5.11 l 17,14.5 c 0,0 -3.4,-0.9 10.19,6.8 3.4,1.89 4.81,2.7 5,2.89 0.1,0.1 0.1,0.1 0.1,0.1 0.7,0.31 1.5,0.8 2.61,1.31 13.59,6.79 6.79,0.79 13.59,6.79 6.81,5.9 -5.1,0 6.81,5.9 11.89,6 11.89,6 11.89,6 l 14.5,5.1 c 0,0 18.71,11.91 23.8,19.61 5.1,7.59 5.1,7.59 5.1,7.59 l 6.01,13.6 c 0,0 -13.61,-5.1 -23,-11 -9.41,-6 4.3,-1.69 -9.41,-6 -13.6,-4.19 -22.1,-6.8 -22.1,-6.8 l -16.2,-5.99 -8.49,-3.4 -14.41,-6.81 -15.4,-6.8 -12.69,-7.6 c 0,0 -3.41,-3.4 -17.9,-7.69 -14.5,-4.3 -14.5,-4.3 -14.5,-4.3 l -7.6,-3.4 -6.01,-0.8 -28.89,-9.41 c 0,0 4.19,3.41 -20.41,-6.8 -24.69,-10.2 -96.2,-45.89 -96.2,-45.89 l -10.2,-4.31 -6.8,-4.19 -20.5,-10.31 -5.89,-4.19 c 0,0 -6.81,0 -17.91,-6.81 -11,-6.8 0,0.8 -11,-6.8 -11.09,-7.7 -11.09,-7.7 -11.09,-7.7 0,0 -9.4,-17.89 -29.8,-26.4 -4.11,-1.7 -6.21,-2.5 -6.9,-2.7 -0.11,-0.09 -0.2,-0.09 -0.2,-0.09 -0.4,-0.11 -0.91,-0.4 -1.41,-0.61 -19.6,-9.3 -19.6,-9.3 -19.6,-9.3 l -7.6,-4.29 c 0,0 0,-4.2 -15.4,-6.8 -15.3,-2.6 -17,-7.7 -25.5,-5.1 -8.5,2.5 -8.5,2.5 -8.5,2.5 l 11.9,21.29 23.81,22.11 c 0,0 47.7,17.09 48.59,19.59 0.81,2.6 0.81,2.6 0.81,2.6 6.79,7.61 1.69,4.2 6.79,7.61 0.1,0.09 0.2,0.09 0.2,0.09 3.5,1.4 48.41,19.6 50,22.9 1.7,3.41 4.3,6 4.3,6 l 12.7,3.4 c 0,0 -4.39,0.4 7.7,6.81 16.21,8.5 5.1,2.5 16.21,8.5 10.99,6 10.99,6 10.99,6 0,0 0.91,0 6.8,4.2 6,4.29 0.9,1.69 6,4.29 5.1,2.5 5.1,2.5 5.1,2.5 l 8.5,4.3 c 0,0 0,3.4 14.51,6.8 14.49,3.41 14.49,3.41 14.49,3.41 0,0 7.6,-1.7 11.9,4.2 4.2,6 -2.6,-0.81 4.2,6 6.81,6.8 6.81,6.8 6.81,6.8 0,0 -0.8,5.99 -11.91,3.39 -11,-2.5 7.71,5.1 -5.9,0 -13.7,-5.09 -2.59,-1.69 -13.7,-5.09 -11,-3.41 -4.2,1.7 -11,-3.41 -6.79,-5.09 -8.5,-4.29 -16.99,-10.19 -8.51,-6.01 -12.01,-7.71 -12.01,-7.71 l -21.2,-13.6 -26.39,-11.89 -11.11,-3.4 c 0,0 -2.5,-2.6 -12.7,-6.01 -10.3,-3.4 2.5,-0.79 -10.3,-3.4 -12.7,-2.5 -12.7,-2.5 -12.7,-2.5 l -12.79,-5.1 -8.5,-5.1 -10.2,-5.1 -9.4,-3.39 -10.2,-6 c -17.01,-10.2 -7.61,-8.5 -17.01,-10.2 -9.4,-1.71 -9.4,-1.71 -9.4,-1.71 l -5.1,-1.7 -5.9,-1.7 -6,-2.6 -174.2,-83.3 -0.7,-0.29 -0.3,-0.11 c -2.9,-1.3 -7.7,-3.3 -15.4,-6.5 -32.4,-13.59 -32.4,-13.59 -32.4,-13.59 0,0 -14.3,-3.91 -21.2,-8.5 -12.79,-8.51 -5.2,-2.61 -12.79,-8.51 -7.7,-6 -7.7,-6 -7.7,-6 l -9.31,-5.9 c 0,0 -16.3,-8.3 -19.6,-10.29 -12.79,-7.6 -12.79,-7.6 -12.79,-7.6 -11.01,-0.91 -11.01,-0.91 -11.01,-0.91 0,0 -18.79,-6.8 -8.5,5.11 10.2,12 10.2,12 10.2,12 0,0 9.31,3.39 19.51,8.5 5.89,2.9 2.79,0.5 2.3,0.09 0.6,0.21 2.5,1.41 7.99,5 5.3,3.4 9,5.8 11.5,7.41 0,0 0,0 0.11,0 0,0.09 0.89,0.5 1.79,1.19 1.31,0.91 2.2,1.5 2.7,1.81 0.31,0.19 0.6,0.39 0.91,0.6 15.29,10.2 12.7,3.4 15.29,10.2 2.5,6.89 6.81,4.3 2.5,6.89 -11.9,2.5 -11.9,2.5 -11.9,2.5 l -10.2,-3.39 -10.2,-6 -8.5,-5.11 c 0,0 0,-3.39 -13.6,-9.3 -10.2,-4.5 -12.79,-5.59 -13.39,-5.9 0.69,0.9 3.49,4.2 -7.9,-1.8 -12.81,-6.8 -5.11,-1.69 -12.81,-6.8 -7.59,-5.09 -7.59,-5.09 -7.59,-5.09 l -14.51,-5.11 -6.79,-4.29 -10.2,-6.8 -148.01,-79.91 c 0.6,0.6 3.41,3.41 -13.7,-4.3 -5.7,-2.5 -7.5,-3.4 -7.8,-3.7 0,0 0.1,0 0.2,0 -0.89,-0.5 -3.7,-1.6 -11.09,-4.8 -23.91,-10.2 -23.91,-10.2 -23.91,-10.2 l -8.5,-3.39 -16.1,-3.5 c 0,0 8.51,4.3 -6,-0.8 -8.7,-3.11 -10.6,-3.71 -10.8,-3.71 l -12.19,-4.79 c -11.01,-5.11 -11.01,-5.11 -11.01,-5.11 0,0 2.5,1.71 -15.4,-1.7 -12.1,-2.29 -13.99,-2.69 -13.99,-2.69 l -16.61,-5.81 c 0,0 -25.49,-8.5 -28.9,-8.5 l -173.69,-6.89 -343.81,-4.2 c 0,0 -332.797,-40.91 -491.094,-139.6 -158.305,-98.71 -262.102,-148.91 -476.5,-438.3 0,0 -81.8047,-160 -115.8008,-285.9 l 13.5976,-17.1 c 0,0 129.0042,437.09 437.5002,624.69 308.5,187.6 369.301,207.7 839.097,221.3 0,0 280.9,-35.69 313.2,-96.99 32.4,-61.31 -73.2,-3.41 -73.2,-3.41 l -10.2,6.8 -22.1,8.51 -27.3,-3.41 -13.59,-5.1 c -3.41,-11.89 -3.41,-11.89 -3.41,-11.89 -18.69,-3.41 -47.6,-1.7 -47.6,-1.7 l -17.09,5.09 -25.51,1.7 h -11.9 c 0,0 -23.8,1.7 -28.89,1.7 -13.7,0 -22.21,-1.7 -27.31,0 l -11.9,1.71 -13.6,1.7 -19.6,9.29 c 0,0 112.41,19.6 191.5,17.9 0,0 -4.2,17 -228.9,14.5 -224.7,-2.6 -263,-16.09 -263,-16.09 l 77.41,-9.4 -0.8,-12.01 148.89,-11 29.81,-9.4 4.29,-10.2 -7.7,-10.2 h -222.1 l -4.3,-13.59 c 0,0 45.1,3.39 51.11,0 5.89,-3.41 24.69,-6.81 32.3,-6.81 7.7,0 12.79,0 12.79,0 l 27.21,-10.29 c 0,0 0.89,-5.11 6.79,-7.61 6,-2.59 9.41,-7.7 9.41,-7.7 0,0 0.89,-0.8 5.09,-5.09 4.31,-4.2 9.4,-6.81 9.4,-6.81 0,0 13.6,-6.79 18.7,-9.29 5.1,-2.61 5.1,-3.5 11.1,-5.2 5.91,-1.71 11,0 11,0 0,0 0.9,3.39 7.7,0 6.81,-3.41 17.9,-0.71 17.9,-0.71 v -5.2 l 5.9,-12.79 h -17.9 l -11.9,-7.61 -0.8,-13.69 c 0,0 5.11,-5.91 9.3,-9.31 4.31,-3.39 6.01,-3.39 8.51,-5.1 2.59,-1.7 10.29,-0.9 12.79,-4.29 2.61,-3.41 2.61,-3.41 2.61,-3.41 v -13.6 h -39.2 l -8.5,-3.4 c 0,0 -23.81,-11.09 -27.21,-9.39 -3.4,1.69 -59.6,-35.71 -59.6,-35.71 -6,-4.29 1.7,-0.9 -6,-4.29 -7.59,-3.41 -13.6,-5.11 -13.6,-5.11 l -6.8,-6.79 -11.9,-10.2 -11.1,-4.2 -5.89,-4.31 -13.61,-8.5 -10.3,-6.8 -8.5,-8.49 -6.8,-3.41 -8.49,-7.7 -5.11,-2.6 -5.09,-3.39 -10.2,-5.91 -8.506,-3.4 -11.098,-3.39 -10.199,-5.11 -6.004,-3.39 -7.602,-5.11 -5.996,-3.4 -8.5,-4.3 -6.801,-4.29 -27.199,-18.71 -9.398,-6.8 c -9.301,-6.79 -4.203,-2.5 -9.301,-6.79 -5.203,-4.2 -9.402,-6.01 -9.402,-6.01 l -6,-4.19 -9.301,-7.7 -6.797,-4.2 -6.801,-2.61 -10.301,-9.3 -7.601,-5.99 -6,-4.2 -10.199,-7.7 -6.797,-4.31 -6.004,-3.9 -10.199,-5.4 -11,-8.5 -9.399,-6.79 -9.402,-9.4 -6.801,-6.01 -5.898,-4.19 -6.801,-4.31 -5.996,-5.09 -10.199,-5.11 v 10.2 l 15.296,12.81 6,6.79 5.899,6 6,4.2 4.203,5.11 5.199,9.69 9.301,5.6 7.699,8.5 5.899,5.21 7.699,7.59 c 4.203,4.3 4.203,4.3 4.203,4.3 l 7.699,6.81 8.5,6.79 6,5.11 c 0,0 2.102,2.9 4.199,5.09 l 3.301,3.3 c 0.098,0 0.098,0.11 0.098,0.11 3.398,5.99 5.101,8.49 5.101,8.49 0,5.11 0,5.11 0,5.11 -11.902,0 -11.902,0 -11.902,0 l -10.996,-9.31 -7.699,-11.1 -6.801,-6.8 -8.504,-9.4 -5.098,-4.2 -8.5,-7.7 -5.097,-2.5 -8.606,-7.7 -5.898,-3.39 -6.801,-5.11 -6,-4.8 -8.496,-10.49 -7.602,-8.51 -4.296,-8.59 v -5.11 l -6.004,-3.4 -8.5,-9.3 c 0,0 -2.5,0 -5.102,-5.09 -2.5,-5.11 -4.199,-15.41 -4.199,-15.41 v -22.9 c 10.199,-0.89 16.101,0 16.101,0 5.996,5.9 23.899,17.01 23.899,17.01 l 7.601,4.2 6.797,1.69 c 0,0 1.703,1.81 0.903,-4.19 -0.903,-6.01 -0.903,-9.4 -0.903,-9.4 l -1.699,-9.71 h 8.301 c -0.699,-0.8 -1.699,-2 -3.199,-3.9 -5.903,-7.59 -5.903,-7.59 -5.903,-7.59 0,0 0.801,3.39 -2.597,-2.61 -3.399,-5.99 -7.602,-11.9 -7.602,-11.9 0,0 -4.297,-3.4 -4.297,-6 0,-2.5 -0.801,6 -4.199,-3.8 -3.402,-9.79 -6.801,-18.3 -6.801,-18.3 l -4.305,-5.1 -5.097,-6.79 -6,-8.51 -4.199,-7.69 -6.801,-4.2 -8.496,-6.01 -9.407,-9.39 -4.296,-7.61 -5.903,-8.5 -10.199,-14.5 c -2.598,-4.3 -4.297,-6.8 -4.297,-6.8 l -0.801,-8.49 v -5.11 c 13.598,4.2 13.598,4.2 13.598,4.2 l 6.801,4.31 8.504,11.09 6,5.11 8.496,9.3 7.601,8.49 c 0,0 4.297,5.11 6.797,9.41 0,0 5.102,5.99 7.699,8.49 l 7.704,6.01 c 0,0 5.101,9.29 9.3,12.69 4.301,3.4 5.098,6.01 5.098,6.01 l 5.102,5.9 6.5,9.89 c 0.101,0.4 1.199,2 4.597,7.21 6.805,10.19 9.403,14.4 9.403,14.4 l 4.203,5.09 3.398,7.7 3.399,6.01 6,6.79 5.898,9.3 v 6 l 2.602,5.9 c 0,0 -1.7,0 3.402,8.61 5.102,8.49 5.102,10.99 5.102,10.99 l 4.296,3.41 8.5,8.49 5.899,3.41 c 7.699,1.69 2.601,0 7.699,1.69 5.102,1.7 11.898,4.31 11.898,4.31 5.106,-1.71 4.305,3.39 5.106,-1.71 0.898,-5.1 0.898,-5.1 0.898,-5.1 l -1.699,-7.7 c 0,0 -4.305,-5.89 -5.199,-8.5 l -3.402,-11.1 -0.801,-11 -0.899,-6 -0.8,-7.59 -3.403,-11.1 -5.996,-6 -6.801,-6.81 -5.898,-5.09 -5.102,-5.51 h -5.203 l -8.5,-8.09 -6.797,-5.11 -7.601,-4.2 -8.496,-6 -4.301,-5.09 -4.305,-7.71 -6.797,-9.29 c 0,0 -11,-11.11 -11.902,-14.51 -0.797,-3.4 3.402,2.6 -0.797,-3.4 -4.301,-5.99 -6,-10.2 -6,-10.2 0,0 -8.5,-17.9 -11,-20.4 l -2.597,-8.59 3.398,-8.51 13.598,5.11 5.101,5.09 22.199,17.91 10.2,9.39 8.5,5.11 8.5,5.9 5.902,5.99 6.898,6.01 5.903,5.9 6.797,3.39 9.398,6.8 5.902,4.31 9.403,5.1 5.097,3.39 11.098,11.91 6.801,9.79 h 6.801 l 9.402,8.1 5.898,5.11 5.102,5.09 5.996,4.31 9.301,7.59 8.5,6.81 c 4.305,3.39 5.203,6 5.203,6 0,0 0.801,-1.71 8.5,6.79 7.598,8.5 -1.699,2.5 3.398,5.91 3.2,2.1 4.399,2.89 4.801,3.19 0.102,0.1 0.199,0.1 0.199,0.1 0.098,0.1 0.098,0.1 0.098,0.1 4.203,1.81 4.203,1.81 4.203,1.81 l 7.699,5.9 5.102,3.39 c 0,0 5.102,4.31 7.699,4.31 l 5.899,5.09 9.398,5.11 5.902,0.8 c 0,0 -1.699,-16.11 -1.699,-20.4 0,-4.2 -8.5,-11.9 -8.5,-11.9 0,0 -1,1.1 -5.101,-2.61 -8.496,-7.59 -12.801,-9.3 -12.801,-9.3 -4.199,-2.6 -4.199,-2.6 -4.199,-2.6 l -10.2,-8.5 -6.8,-6.79 c -13.598,-16.2 -14.496,-23.41 -14.496,-23.41 v -3.8 h 6.796 c 10.2,3.4 15.301,7.6 15.301,7.6 l 5.098,4.3 5.101,5.9 5.996,4.3 6.004,2.61 7.602,6.79 c 8.496,5.9 8.496,5.9 8.496,5.9 l 8.498,-0.79 h 18.81 l 5.89,-3.41 -3.39,-5.09 c -1.31,-0.31 -3.41,-0.9 -6.81,-1.7 -13.59,-3.51 -16.998,-6.01 -16.998,-6.01 l -6.797,-5.1 c -5.101,-6.79 -7.699,-11.5 -7.699,-11.5 l -1.699,-8.09 c 0,0 2.597,-0.8 7.695,-2.5 5.102,-1.7 10.998,-3.41 10.998,-3.41 l 6,-2.6 -3.39,-5.1 c 0,0 -9.405,-5.09 -11.108,-7.69 -1.699,-2.5 -7.598,-7.61 -7.598,-7.61 l -8.5,-5.99 -9.398,-7.6 -6.004,-5.11 -9.297,-9.39 -17,-13.61 -6.902,-6.79 -4.199,-3.4 c 0,0 -4.5,-0.31 -7.7,-1.7 -9.3,-4.31 -9.3,-5.51 -13.597,-6.01 -6.801,-0.8 -6.801,-0.8 -6.801,-0.8 l -17.902,-2.6 c 0,0 -1.7,-2.59 -3.399,-5.09 -1.703,-2.6 -4.203,-7.71 -4.203,-7.71 0,0 -2.598,1.7 -5.098,-4.2 -2.597,-5.99 -6,-11.09 -6,-11.09 h -19.601 c -4.199,0 -9.301,0 -9.301,0 l -5.996,-5.91 c 0,0 -24.703,-25.6 -28.902,-28.1 -4.301,-2.59 -9.399,-6.79 -9.399,-6.79 0,0 -5.898,-4.31 -6.801,-9.41 -0.8,-5.1 -0.8,-5.1 -0.8,-5.1 l -3.399,-8.49 -0.898,-6.81 -1.699,-8.49 -2.602,-6.01 v -5.1 l -2.5,-5.1 -2.602,-5.99 -5.101,-8.51 -8.5,-11.89 -3.399,-7.61 -2.5,-6.89 -4.3,-5.9 v -5.11 l 6,-5.1 14.398,8.51 12.805,7.6 8.5,5.99 9.398,7.71 10.996,10.19 10.305,6.8 10.199,7.61 11.899,7.69 6.3,6.3 c -0.097,-0.1 -0.3,-0.19 -0.402,-0.29 0.402,0.59 2.402,2.69 7.699,8.49 11.903,12.7 15.305,15.31 15.305,15.31 l 5.996,5.09 5.902,6 6,7.61 5.102,8.49 6,7.7 6.801,3.41 c 10.996,9.29 10.996,9.29 10.996,9.29 l 6.801,6.9 c 0,0 -1.7,1.71 2.597,5.91 4.203,4.29 4.203,4.29 4.203,4.29 l 9.403,9.3 6,4.31 c 0,0 2.695,3.19 6.797,6.79 8.5,7.7 12.699,9.4 12.699,9.4 6,7.61 9.398,11.01 9.398,11.01 l 6.004,7.69 5.899,5.11 9.398,10.19 c 21.198,16.2 21.198,16.2 21.198,16.2 l 3.5,0.81 5.9,6.79 c 5.1,3.4 5.1,3.4 5.1,3.4 l 6.01,1.7 c 0,0 2.5,3.41 5.09,0 2.5,-3.4 0.8,-8.5 0.8,-8.5 l -4.19,-10.99 -7.71,-6.01 c -5.1,-4.3 -9.3,-5.99 -9.3,-5.99 l -6,-5.1 -5.99,-4.2 -8.506,-9.41 -10.199,-7.59 -5.898,-6.01 -2.602,-6 -10.199,-7.59 c -5.102,-5.11 -11.902,-10.21 -11.902,-10.21 l -6.801,-6.79 -5.996,-5.1 -5.903,-6.01 -6.898,-6.8 -4.203,-7.7 -7.699,-7.6 -6.801,-5.99 -4.199,-12.71 5.101,-5.19 10.996,2.59 13.703,6.8 17.801,13.6 15.301,11.11 c 0,0 -0.805,1.7 9.398,5.09 10.2,3.4 10.2,3.4 10.2,3.4 l 7.699,5.1 8.497,4.31 15.3,8.49 14.5,10.21 c 0,0 4.2,1.7 11.01,5.9 6.89,4.29 6.89,4.29 6.89,4.29 l 8.51,5.1 7.59,4.31 7.7,4.2 5.11,5.99 c 0,0 28.09,14.41 33.19,16.11 5.1,1.7 64.71,31.49 64.71,31.49 l 10.19,8.51 c 0,0 0,0.9 5.91,3.4 3.39,1.49 -0.61,0.19 -1.1,0.19 0.49,0.51 2.89,1.5 9.6,4.1 19.6,7.71 13.69,3.4 19.6,7.71 5.99,4.19 11.09,5.1 11.09,5.1 l 8.51,5.49 h 13.59 l 15.3,6.4 11.11,2.5 8.5,2.6 14.49,0.8 h 15.31 l 9.29,0.91 h 12 l 11.01,-0.91 11.09,-1.7 6.81,-4.2 c -0.91,-10.2 11.9,-4.3 -6,-12.8 -17.81,-8.5 -21.21,-9.3 -21.21,-9.3 l -9.4,-7.7 c -6,-2.59 -19.59,-11.1 -19.59,-11.1 l -11.01,-9.3 -24.7,-13.6 -6.79,-3.5 -10.21,-7.59 -7.7,-4.31 -13.59,-5.9 -11.91,-5.1 -6.8,-5.99 -8.5,-5.91 -9.4,-6 -6.8,-7.69 -8.5,-6.81 -80.9,-63.8 -10.2,-10.19 -11.1,-9.41 c 0,0 -2.5,-1.7 -5.89,-5.89 -3.41,-4.3 -8.5,-8.51 -8.5,-8.51 -3.41,-4.3 -8.51,-7.7 -8.51,-7.7 l -14.5,-10.19 -5.99,-6.01 -6.81,-6.79 -10.2,-9.31 -6.8,-3.4 -9.4,-8.59 -4.2,-5.9 -10.197,-8.51 -5.098,-6.79 -5.101,-6.01 -2.598,-5.9 -2.5,-8.59 -3.402,-5.91 12.699,-2.6 h 10.197 l 7.7,1.7 8.5,-3.4 -4.2,-10.19 -6.89,-5.11 -5.11,-6.8 1.7,-5.99 h 7.7 l 9.41,3.4 12.69,4.29 19.61,6.01 10.2,-1.71 7.69,0.8 11.91,0.91 h 7.59 l 7.7,-1.71 17.01,6.81 11.09,9.29 h 56.21 l -0.91,-5.09 c 0,0 -2.5,-1.7 -5.9,-2.5 -3.5,-0.9 -3.5,-0.9 -3.5,-0.9 l -8.5,-7.61 -6.79,-11.99 c 3.39,-4.2 6.79,-6.81 6.79,-6.81 l 12,0.91 8.5,5.9 11.01,5.09 5.99,3.5 c 0,0 13.61,9.31 22.11,11.91 4.49,1.29 3.49,1.69 2.69,1.79 0.4,0 1.11,-0.1 2.4,-0.1 7.7,0 7.7,0 7.7,0 l 9.31,0.81 13.69,0.89 34.9,13.61 c 0,0 34,22.1 35.7,24.69 1.7,2.5 8.5,6.8 8.5,6.8 l 6.81,4.2 12.79,7.71 c 0,0 2.5,2.5 8.5,6.79 5.9,4.3 -1.69,1.7 8.51,5.1 10.2,3.41 15.29,5.11 15.29,5.11 l 15.31,6.79 11.09,5.1 8.51,3.4 16.19,4.31 13.61,4.2 8.5,3.39 9.4,5.2 11.9,5.11 9.39,5.1 5.9,3.39 9.4,5.1 10.2,1.7 c 0,0 1.7,0.8 8.5,4.2 6.81,3.41 10.2,5.11 10.2,5.11 l 6.81,5.99 10.2,3.4 15.29,1.7 12.81,1.7 6.79,0.91 10.2,1.7 11.9,0.8 14.5,0.9 11.1,-0.9 13.6,-1.71 16.2,-2.5 9.31,-2.6 11.09,-3.4 10.2,-2.59 c 7.7,-6.8 15.3,-11.91 15.3,-11.91 l 10.2,-5.9 1.71,-6.79 0.89,-9.41 6.81,-5.1 1.7,-8.49 -0.81,-5.11 -1.8,-16.99 -3.4,-11.11 -0.8,-6.79 -3.39,-5.11 -2.61,-11.89 c 0,0 -0.8,-7.71 -0.8,-11.91 0,-4.3 -1.7,-34.1 -1.7,-34.1 l -2.59,-9.39 c 0,0 -1.7,1.69 -4.2,-10.21 -2.61,-11.89 -4.31,-15.29 -4.31,-15.29 l -6.8,-10.21 c -0.79,-5.1 -8.49,-14.5 -8.49,-14.5 l -3.41,-8.5 -10.2,-17.8 -5.09,-9.39 -4.31,-10.21 -3.4,-13.59 -0.8,-6.01 -10.2,-11.09 -8.59,-7.61 1.69,-6.8 v -6.79 l -6.8,-5.11 c -4.2,-6.89 -4.2,-6.89 -7.59,-11.09 -3.41,-4.31 -6.81,-6.81 -6.81,-6.81 l -5.09,-5.1 -9.4,-0.9 -9.41,-0.8 h -5.9 l -6,-2.59 c -4.2,-2.5 -14.4,-8.51 -14.4,-8.51 l -10.29,-5.9 -8.51,-9.39 -6.8,-7.71 -5.9,-6.8 c -6,-7.59 -16.2,-14.4 -16.2,-14.4 l -9.4,-11.09 -9.3,-12.81 -10.19,-4.2 -11.11,-5.99 -7.7,-6.81 -5.9,-6.8 -6.8,-5.09 c 0,0 -1.7,-1.7 -8.49,-6.01 -6.81,-4.2 -6.81,-4.2 -6.81,-4.2 l -13.7,-8.49 -9.3,-7.71 c 0,0 -1.7,-1.7 -6.8,-5.1 -5.1,-3.4 -39.19,-28.89 -39.19,-28.89 l -6.81,-5.11 -8.5,-5.101 -16.2,-12.789 c 0,0 2.6,0.789 -9.3,-6.008 -12,-6.793 -22.2,-13.602 -22.2,-13.602 l -8.5,-5.898 -10.19,-6 -7.61,-5.992 -21.29,-13.602 -27.3,-17.008 -14.4,-5.09 -11.9,-6.8 -12.01,-7.711 -8.5,-3.391 -7.59,-3.398 -6.81,-4.2 -8.5,-6.011 -13.7,-5.989 c 0,0 -8.49,-4.199 -12.7,-6.8 -4.3,-2.5 -11.1,-5.91 -11.1,-5.91 l -10.2,-8.5 h -5.09 l -11.11,-7.7 -7.6,-4.199 -6.8,-6 h -5.99 l -10.2,-5.09 -13.61,-7.711 -8.49,-4.199 -7.7,-2.601 -10.2,-5.09 -51.107,-20.399 h -12.699 l -12,-6.011 -13.602,-4.2 -14.398,-1.699 -12,-0.902 h -11.899 c 0,0 -7.601,-1.699 -13.601,-1.699 -5.899,0 -5.899,0 -5.899,0 h -16.203 l -16.195,-4.188 -14.504,-2.602 -10.199,0.899 -9.301,-0.899 -8.496,-0.8 h -7.699 l -11.106,-0.899 h -9.297 l -11.101,0.899 -8.496,0.8 h -22.106 l -11.898,2.602 c 0,0 -2.598,0.797 -9.403,0 -6.797,-0.902 -6.797,-0.902 -6.797,-0.902 l -6,-3.399 c -5.101,-4.211 -5.101,-4.211 -5.101,-4.211 0,0 -5.098,-10.289 0,-11.992 5.101,-1.699 19.597,-2.5 19.597,-2.5 h 13.606 c 0,0 -4.199,-0.898 11.098,0.801 15.296,1.699 29.8,0.902 29.8,0.902 l 22.899,1.699 12.004,-3.402 24.597,-8.508 24.5,-2.601 h 0.2 c 2.902,0.402 7.3,0.902 13.597,1.703 32.403,4.297 40.903,4.297 40.903,4.297 l 7.597,-0.899 h 11.106 l 22.097,-1.699 11.102,1.699 16.199,2.61 h 7.598 l 12.807,0.789 c 0,0 1.7,0.91 13.59,0.91 11.9,0 11.9,0 11.9,0 l 15.4,1.699 9.31,2.5 7.69,0.902 h 11.91 l 7.59,1.692 8.6,-1.692 6.8,-2.601 1.7,-5.109 -32.39,-7.5 -6.81,-5.188 c 0,0 0.9,0.797 -5.89,-2.602 -6.81,-3.41 -8.51,-10.21 -8.51,-10.21 l 16.1,-8.489 8.5,-2.601 20.5,-3.41 h 5.91 l -1.7,-13.59 -15.31,-4.2 -9.4,-1.699 -33.19,-0.91 -10.2,0.91 -14.4,-7.711 -16.2,-5.992 c 0,0 -16.206,6.891 -10.206,10.293 5.899,3.41 8.506,3.41 12.706,5.109 4.29,1.7 4.29,1.7 4.29,1.7 l 12.8,5.09 6.8,4.199 5.1,5.101 c 0,0 5.9,7.711 -3.39,10.211 -9.4,2.59 -17.9,0 -17.9,0 h -6.01 l -12.696,-0.801 -11.899,-2.601 -8.5,-5.109 -7.699,-2.5 -10.203,-2.598 c 0,0 -1.699,1.699 -20.399,1.699 -18.8,0 -18.8,0 -18.8,0 l -12.7,-3.402 -11.097,-1.699 -23.805,-0.801 c 0,0 -2.598,-4.289 -16.996,2.5 -14.504,6.801 -23.004,7.711 -23.004,7.711 l -7.695,7.601 h -11.801 c 0,0 -5.106,0 -22.203,0 -42.598,0 -117.5,10.289 -117.5,10.289 l -12.699,0.801 -32.399,3.41 -17.902,0.899 -15.301,1.699 h -34.898 l -16.098,-0.899 -17.102,-0.8 -8.5,1.699 -8.5,8.492 -10.199,3.399 -10.199,1.699 -11.902,-0.899 -8.5,-5.898 2.5,-5.09 1.699,-5.102 -8.496,-0.91 c 0,0 -4.203,0 -18.703,0 -14.5,0 -14.5,0 -14.5,0 l -16.996,-1.699 -12.805,-2.5 -10.199,-2.601 -6.797,-3.399 c 1.699,-6.793 4.297,-9.402 4.297,-9.402 l 11.898,-3.399 6.801,-5.101 4.203,-5.09 6,-1.699 4.301,-6.809 -2.602,-7.699 -6.805,-5.094 h -16.996 c -8.5,5.992 -17,10.293 -17,10.293 l -20.5,0.801 -9.3,0.898 -15.403,-2.601 -10.199,-3.399 4.301,-11.101 c 0,0 2.301,-4.797 0,-6.797 -6,-5.09 -2.602,-7.59 -13.598,-7.59 -11.101,0 -14.5,0 -14.5,0 h -19.601 l -4.2,-11.113 h 11 c 0,0 3.399,-5.989 7.704,-5.989 4.296,0 9.398,-6.8 9.398,-6.8 l 4.199,-12.711 c -11,-5.09 -17.902,-5.989 -17.902,-5.989 0,0 1.703,-11.91 4.305,-12.808 2.597,-0.801 4.296,-5.094 4.296,-5.094 l -1.699,-10.207 2.5,-6.789 6,-13.613 51.899,-50.188 c 5.097,-5.101 11,-16.199 11,-16.199 l 11.101,-3.402 c 0,0 3.399,-4.2 4.301,-7.61 0.801,-3.398 0.801,-10.289 0.801,-10.289 0,0 4.297,-0.801 -0.801,-5.101 -5.102,-4.211 -10.305,-9.309 -10.305,-9.309 0,-12.801 7.703,-17.902 7.703,-17.902 l 23,-5.098 11.102,-1.699 11.898,-0.891 14.399,-5.101 16.203,-1.711 12.797,-4.199 c 0,0 28.101,-5.098 40,-6 11.898,-0.801 17.801,-1.688 17.801,-1.688 0,0 29.8,1.688 27.3,5.09 -2.601,3.398 -19.597,8.508 -19.597,8.508 l -12.805,2.601 c 0,0 -9.297,5.891 -8.5,9.391 0.902,3.398 6.801,5.898 6.801,5.898 h 15.402 l 22.899,-5.101 c 0,0 5.097,0.902 18.8,-0.797 13.598,-1.703 13.598,-1.703 13.598,-1.703 l 18.699,-4.297 28.903,-2.594 46.8,-2.5 20.5,-14.496 1.7,-6.801 V 367.07 c 0,0 15.3,-3.398 20.402,-2.59 l 15.301,-2.5 4.297,-5.101 0.8,-5.109 -5.898,-3.399 -13.703,0.801 5.203,-16.102 11.898,-1.699 8.5,-2.601 6.797,-0.801 14.504,-6.891 -24.703,-9.308 -14.496,-2.598 -6.805,-5.09 c 0,0 -7.699,1.688 -3.398,-5.902 4.203,-7.711 -6.801,-6.809 4.203,-7.711 11.098,-0.797 11.098,-0.797 11.098,-0.797 l 11.898,-1.703 17.004,2.5 68.996,-1.699 7.602,0.902 10.3,-2.602 -0.898,-6.789 -7.703,-6.812 h -35.695 l -36.602,-6 -18.703,-5.887 -11.098,-0.902 c 0,0 -6.801,-3.399 0.899,-5.11 7.601,-1.699 7.601,-1.699 7.601,-1.699 l -22.097,-9.391 -14.504,-5.101 c -0.801,-4.199 -3.399,-11.91 0.898,-11.91 0.402,0 0.504,0 0.504,-0.09 1.996,0.191 4.598,0.59 8,0.992 26.398,3.399 29.797,3.399 29.797,3.399 l 8.5,-0.899 c 1.402,0 1.601,0.098 1.601,0.207 0.102,0 1.102,-0.207 6.102,-1.008 10.199,-1.699 17.797,-3.488 17.797,-3.488 h 17 l 5.203,-4.203 c -5.203,-11.91 -14.504,-17.008 -14.504,-17.008 h -9.398 c 0,0 -5.899,0.801 -11.899,0 -6.004,-0.891 -6.004,-0.891 -6.004,-0.891 l -4.195,-6.8 10.199,-6.809 h 6 c -6,0 -7.699,-6.789 -13.699,-6.789 -5.902,0 -14.402,-2.5 -14.402,-2.5 l -8.5,-2.602 c 0,0 -5.098,0 -10.2,-2.5 l -6.004,-12.808 40.801,-2.594 9.403,0.902 c 0,0 -8.496,-1.699 15.3,-0.902 9.7,0.293 13.5,0.594 14.496,0.692 l 19.602,-1.489 18.699,1.699 h 12.805 l 17.797,-2.601 c 0,0 9.398,0 21.301,0.902 11.898,0.797 11.898,0.797 11.898,0.797 h 28.102 l 80.906,-1.699 c 0,0 9.29,-2.5 16.09,0 6.81,2.601 12.8,0 12.8,0 h 11.91 l 12.79,5.101 h 28.91 l 13.59,0.891 18.8,-5.992 h 23.8 l 6.8,-4.199 12.81,-5.11 v -9.39 c 0,0 -3.41,-8.508 -11.11,-10.211 -7.7,-1.699 -7.7,-1.699 -7.7,-1.699 l -8.5,-5.098 -10.19,-5.992 -17.9,-6.809 -30.6,-3.402 H 981.836 l -6,5.101 c 0,0 -17.902,-0.8 -25.504,0 -7.695,0.899 -7.695,0.899 -7.695,0.899 l -11.106,-2.598 -9.297,0.899 -11.101,-4.301 11.101,-7.5901 19.602,-5.0976 h 14.398 l 10.2,-2.6094 c 0,0 6.004,-3.4024 13.703,-8.5 7.597,-5.0938 -2.602,-4.293 7.597,-5.0938 10.2,-0.8984 26.406,-11.9062 26.406,-11.9062 0,0 5.09,-1.7031 11.89,-2.5899 6.8,-0.8125 11.1,-3.4023 11.1,-3.4023 l 8.5,-5.8984 c 0,0 28.91,-12.8008 36.61,-14.5 7.59,-1.7032 17.9,-4.3125 17.9,-4.3125 0,0 34.89,-14.3868 43.39,-16.0899 8.51,-1.6992 24.6,-8.5078 24.6,-8.5078 l 10.3,-3.40235 22.1,-5.98828 16.2,-0.90234 h 5.91 c 0,0 0.89,-0.79688 14.49,-0.79688 13.6,0 80.8,1.69922 85.11,0 4.2,-1.70313 28.89,5.08984 28.89,5.08984 l 16.2,3.39844 27.21,6.80077 11.9,1.711 9.39,2.5976 9.4,0.8008 c 0,0 7.6,-0.8008 20.4,4.2891 12.8,5.1015 3.4,0.8007 12.8,5.1015 9.3,4.1992 9.3,4.1992 9.3,4.1992 l 9.4,1.6993 10.2,3.4101 11.1,2.6016 11,4.1914 19.6,7.6992 8.5,6.0078 47.7,28.8906 12.7,3.4024 5.1,5.1094 6.8,4.3007 28.1,21.199 c 0,0 16.21,16.199 18.8,17.098 2.5,0.801 62.1,-10.207 64.6,-10.207 2.61,0 12.81,1.699 12.81,1.699 l 19.6,5.91 29.79,8.489 c 0,0 7.6,3.402 11.9,5.101 0,0 6.81,5.098 11.9,7.707 5.11,2.5 11.9,5.094 11.9,5.094 l 12.81,8.5 10.2,8.508 13.59,6.789 18.71,9.41 11.09,5.101 14.51,5.09 20.39,11.91 10.2,7.692 11.11,9.297 11.9,7.703 11,4.297 12.79,6.812 c 0,0 55.3,42.5 57.9,44.199 2.5,1.7 7.6,5.989 7.6,5.989 l 16.2,13.609 10.2,8.492 10.2,11.11 6.81,4.199 11.09,8.492 13.6,10.207 11.11,9.391 12.79,8.511 13.6,9.391 6.8,7.598 11.9,12 10.2,8.511 6,7.602 8.51,9.387 10.99,10.203 7.7,6.797 6,10.211 21.2,20.398 c 0,0 66.41,57.902 68.1,60.504 1.7,2.5 6.8,9.289 6.8,9.289 l 9.41,6.008 13.59,14.492 9.4,12.711 9.31,11.098 8.49,9.3 6,10.301 6,9.301 11.9,11.887 7.61,7.703 7.7,11.109 7.59,9.301 8.6,7.688 6.8,7.609 5.9,7.691 c 0,0 0.91,-0.898 10.2,6.801 9.4,7.711 1.7,-5.101 9.4,7.711 7.7,12.688 61.31,72.289 63.01,76.598 1.69,4.199 5.89,10.992 5.89,10.992 l 8.5,8.508 6.9,9.39 5.9,11.11 6,10.992 8.5,11.109 4.2,8.489 6,11.109 c 0,0 6.81,15.301 11.1,20.402 4.2,5.09 12.7,18.699 12.7,18.699 l 6.81,7.692 6,6.797 6.59,10.203 13.01,12.808 5.09,6.79 6.8,6.8 -7.7,1.7 -7.6,-5.098 c -5.1,-4.293 6.1,1.699 -10.99,-9.391 -17.11,-11.109 -21.41,-14.5 -21.41,-14.5 l -9.3,-11.011 -6.9,-6 c 0,0 0,-1.692 -10.2,-10.989 -10.2,-9.41 -24.6,-25.609 -24.6,-25.609 l -16.2,-17 c 0,0 -6,-10.192 -11.1,-16.203 -5.09,-5.899 -5.89,-6.797 -11.9,-12.699 -6,-5.989 -10.2,-10.2 -13.59,-12.801 -3.41,-2.5 -10.2,-10.188 -14.51,-11.09 -4.2,-0.797 -7.59,8.59 -7.59,8.59 l 1.7,6.812 8.49,10.188 19.5,22.101 22.21,19.602 7.59,5.898 23.01,26.41 11.1,15.29 c 0,0 6.79,6.812 11,11.902 4.29,5.199 4.29,7.699 11.09,13.707 6.81,5.891 15.3,14.391 15.3,14.391 0,0 0,2.609 7.7,9.402 7.61,6.797 16.2,16.207 16.2,16.207 0,0 37.4,39.101 37.4,42.501 0,3.39 3.4,7.69 3.4,7.69 l 5.11,10.21 8.49,11.09 8.5,11.01 5.11,11.09 -6.81,0.8 -6.8,-3.4 -6.79,-5.9 -6.81,-11.1 -11.09,-5.1 c 0,0 -5.1,-2.6 3.39,11.91 8.61,14.5 9.41,17.9 9.41,17.9 l 4.3,5.9 5.89,3.49 4.3,5.1 6.81,8.51 4.2,8.49 c 2.79,2.8 3.7,3.51 3.89,3.6 0,-0.09 0,-0.09 0.1,0 0.21,0.2 1.1,1.21 4.5,4.91 9.41,10.19 6.01,5.9 9.41,10.19 l 7.69,8.11 11.01,13.99 c 0,0 -0.8,3.4 5.99,15.3 6.8,12.01 6.8,12.01 6.8,12.01 l 5.11,12.69 c 0,0 6.8,1.7 3.4,6.81 -3.4,5.1 -3.4,5.1 -3.4,5.1 l -12.8,-9.31 c 0,0 -0.8,-2.6 -5.1,-8.5 -4.21,-5.99 -7.61,-9.4 -7.61,-9.4 l -5.1,-7.5 c 0,0.51 -0.59,1.2 -9.39,-12.1 -10.21,-15.29 -14.5,-19.09 -14.5,-19.09 0,0 -3.4,-2.1 -7.61,-7.21 -4.3,-5.19 -4.3,-6 -9.4,-10.29 l -17,-17 -5.99,-9.31 -5.9,-8.59 -13.61,-17.81 c 0,0 -13.2,-5.09 -14.7,-11.89 -1.5,-6.81 -4.09,-16.2 -7.5,-18.81 -3.4,-2.5 -11.9,0.91 -11.9,0.91 0,0 -2.5,0.8 0,8.49 2.61,7.7 3.4,10.2 6,12.81 2.5,2.5 8.51,11.89 8.51,11.89 l 4.89,6.81 9.6,9.29 14.4,13.71 6.81,7.59 c 0,0 2.6,4.3 6.8,10.21 4.29,5.99 4.29,5.99 4.29,5.99 l 6.81,8.5 11.09,13.6 c 0,0 2.5,8.5 5.9,12.81 3.4,4.2 6.81,9.39 6.81,9.39 0,0 -0.8,2.5 2.6,7.6 3.39,5.11 3.39,5.11 3.39,5.11 l 15.31,21.3 5.99,6.79 11.01,13.61 4.3,4.29 5.89,4.2 6,9.41 6.1,9.39 v 9.31 l 4.1,8.49 c -5.09,9.41 -5.09,9.41 -5.09,9.41 l -3.4,-0.91 -7.71,-7.6 c -3.39,-5.99 -3.39,-5.99 -3.39,-5.99 l -5.9,-9.31 c -5.11,-6.9 -10.21,-13.69 -10.21,-13.69 l -11.89,-8.51 -12.81,-15.3 -5.99,-5.1 -5.91,-5.99 -6,-5.1 -5.89,-3.41 -8.51,-5.1 -10.29,-10.19 -7.61,-7.61 -4.3,-3.4 -5.9,-8.59 -11.09,-11.91 -6.7,-4.2 v -8.09 l -9.51,-8.11 -5.1,-3.4 -6.8,-4.29 -6.8,-3.4 c -5.09,-0.8 -5.09,8.49 -5.09,8.49 l 9.39,10.71 c 0,0 5.1,7.2 8.51,13.99 3.39,6.81 3.39,6.81 3.39,6.81 l 12.01,10.29 7.59,6.81 11,12.69 7.7,9.41 7.61,8.49 c 0,0 1.7,-1.7 11.09,14.51 9.41,16.09 9.41,16.09 9.41,16.09 0.8,3.41 4.19,6.81 4.19,6.81 l 9.4,9.39 9.31,6.01 12.8,6.79 c 0,0 2.6,1.7 5.1,3.4 l 10.19,8.51 6.81,4.2 4.3,5.99 5.89,6.8 c 6.91,7.71 6.91,7.71 6.91,7.71 l -2.61,9.29 1.7,5.1 3.41,7.7 1.7,6.8 5.09,6.81 c 0,0 -3.39,0.9 0,5.99 3.4,5.1 3.4,5.1 3.4,5.1 l 2.6,7.6 -5.1,4.31 c -8.49,1.7 -12.8,-1.7 -12.8,-1.7 l -9.39,-10.21 -2.5,-8.49 -6.01,-4.31 -10.2,-8.5 -4.19,-8.49 -4.3,-5.11 -4.21,-5.1 c 0,0 -0.9,-2.6 -2.6,-5.1 -1.7,-2.59 -4.29,-5.09 -4.29,-5.09 l 0.89,-5.11 c -0.49,-0.5 -2,-1.99 -5.99,-6 -7.61,-7.69 -11.01,-11.89 -11.01,-11.89 l -4.3,-8.51 c -8.49,0 -8.49,7.6 -8.49,7.6 0,0 -1.71,0 4.3,9.4 5.89,9.4 3.39,5.1 5.89,9.4 l 0.71,1.1 c 0.29,0.4 0.5,0.8 0.5,0.8 l 3.89,5.71 c 0,0 4.31,3.4 11.11,11.09 6.79,7.61 6.79,7.61 6.79,7.61 l 5.1,5.99 5.11,9.41 c 5.09,5.9 5.09,5.9 5.09,5.9 l 4.3,11.89 4.2,8.51 c -4.2,5.99 -5.1,7.69 -8.5,7.69 -3.39,0 -11.9,-2.6 -11.9,-2.6 l -12.79,-12.7 c -7.61,-6 -12.71,8.51 -12.71,8.51 l 4.2,7.69 7.71,8.51 2.5,5.9 5.09,5.09 c 4.3,7.71 8.61,11.11 8.61,11.11 0,0 6.79,7.69 9.29,12.79 2.6,5.11 2.6,10.2 2.6,10.2 l -8.49,1.7 c 0,0 -3.4,3.4 -6.01,2.5 -2.6,-0.8 -11.89,-6.79 -11.89,-6.79 0,0 -10.21,-8.51 -12.81,-12.71 -2.5,-4.3 -13.6,-12.79 -13.6,-12.79 0,0 -4.3,-4.31 -10.2,-8.51 -5.99,-4.29 -11.1,-9.39 -11.1,-9.39 l -0.8,-5.11 c 0,0 -2.6,-6.8 -5.1,-9.39 -2.6,-2.5 -5.99,-4.2 -8.49,-5.9 -2.61,-1.7 -2.61,-0.91 -6.81,-5.11 -4.3,-4.3 -8,-6.4 -11.09,-8.5 -13.61,-9.4 -13.61,-8.49 -16.21,-11.9 -2.5,-3.4 -8.5,-4.3 -8.5,-4.3 0,0 -6,-1.7 -11.09,0.9 -5.11,2.5 -6.81,10.21 -6.81,10.21 0,0 -5.09,5.9 0,12.69 5.11,6.81 22.21,21.3 22.21,21.3 0,0 7.59,2.61 12.7,7.71 5.09,5.09 18.79,16.09 18.79,16.09 l 11.9,12 10.2,9.31 6.81,6.8 9.29,7.19 c -1.79,-1.2 -2.59,-1.49 10.31,9.01 18.7,15.29 23.79,18.7 23.79,18.7 0,0 1.7,4.29 4.2,5.1 2.6,0.89 12.81,9.39 14.51,11.89 1.69,2.61 114.1,80 118.3,85.11 4.29,5.09 10.19,10.29 10.19,10.29 l 9.41,8.51 c 0,0 10.19,7.59 15.3,10.19 5.1,2.5 19.6,12.71 19.6,12.71 0,0 18.69,8.7 20.4,13.7 1.7,5.1 11.09,10.19 11.09,10.19 0,0 5.9,5.1 12.71,10.21 6.79,5.1 12.79,13.59 12.79,13.59 0,0 9.4,8.51 12.8,11.91 3.4,3.39 5.9,6.79 10.21,9.4 4.2,2.5 6.8,5.89 10.19,8.5 3.4,2.5 2.5,1.7 11.11,6.79 8.49,5.11 13.59,7.7 13.59,7.7 l 8.51,5.9 c 0,0 7.59,8.5 10.99,10.2 3.51,1.71 8.61,6 12,7.7 3.4,1.71 11,5.91 11,5.91 0,0 2.61,1.69 5.11,4.29 2.6,2.61 7.69,5.11 10.19,6.8 2.6,1.7 6.91,3.4 6.91,3.4 l 12.69,16.2 c 0,0 -2.5,5.11 0,7.61 2.6,2.59 -13.6,0 -13.6,0 l -17.9,-11 -12.7,-10.2 -21.29,-14.51 -11.91,-8.5 -16.2,-10.2 c 0,0 -3.4,-4.29 -6.8,-7.7 -3.4,-3.4 -10.19,-8.49 -14.5,-13.6 -4.2,-5.09 -10.19,-9.4 -13.59,-11.1 -3.4,-1.69 -11.91,-7.6 -14.5,-8.9 -2.5,-1.3 -15.31,-11.5 -15.31,-11.5 l -17,-13.59 c 0,0 -8.5,-6.8 -12.79,-9.41 -4.2,-2.5 -10.21,-8.49 -10.21,-8.49 0,0 -15.3,-11.01 -19.6,-13.61 -4.2,-2.5 -10.19,-7.69 -12.69,-8.49 -2.61,-0.9 -9.41,-6.8 -12.81,-9.41 -3.39,-2.5 -8.49,-6.8 -12.7,-9.3 -4.3,-2.59 -10.4,-12.99 -12.79,-9.4 -3.4,5.11 2.5,9.4 7.59,16.2 5.2,6.81 11.11,11.01 16.21,15.3 5.09,4.3 5.09,7.01 13.59,11.11 8.51,4.2 14.5,7.6 20.51,11.89 5.9,4.2 10.99,7.6 16.99,12.71 5.91,5.09 3.41,5.09 11.01,9.39 7.69,4.31 12,8.51 12,8.51 5.09,4.29 3.4,1.69 10.99,8.09 7.71,6.4 8.5,8.9 14.51,13.21 5.89,4.2 6.79,5.09 11.1,8.49 4.2,3.41 3.4,1.71 12.69,9.4 9.41,7.6 6,3.41 9.41,7.6 3.4,4.31 6.8,8.51 6.8,8.51 0,0 75.7,52.79 78.3,55.4 2.5,2.5 6.79,2.5 15.3,9.29 8.49,6.8 16.19,6.6 18.69,13.1 2.61,6.5 -21.19,-9.69 6.81,10.71 28.09,20.49 28.09,20.49 28.09,20.49 l 3.4,1.7 32.4,33.2 c 5.9,5.1 5.9,5.1 5.9,5.1 0,0 1.7,3.4 10.21,8.51 8.49,5.09 -0.8,0 8.49,5.09 7.1,3.8 8.8,4.8 9.3,5 0.11,0.11 0.11,0.11 0.11,0.11 8.49,7.7 8.49,7.7 8.49,7.7 l 9.41,10.99 5.8,6.71 c -0.4,-1.51 -3.61,-12.3 4.39,5.2 8.51,18.8 3.4,17.9 3.4,17.9 -5.99,2.59 -16.2,-1.71 -16.2,-1.71 l -6.8,-5.1 -6.79,-5.1 c 0,0 -8.51,-10.2 -14.51,-11.9 -5.89,-1.7 -22.9,-15.29 -22.9,-15.29 l -5.99,-6.9 -6.81,-5.91 -22.79,-14.4 c 0.9,0.31 3.09,0.6 -14.6,-11.99 -20.51,-14.51 -12.8,-10.2 -20.51,-14.51 -7.6,-4.2 -7.6,-4.2 -7.6,-4.2 l -29.79,-20.4 -15.3,-10.29 c 0,0 -21.3,-22.11 -28.11,-24.61 -6.8,-2.6 -6.8,-2.6 -6.8,-2.6 0,0 -17.9,-9.4 -22.19,-12.79 -4.2,-3.41 -19.51,-13.61 -35.71,-22.9 -5.99,-3.5 -8.4,-4.71 -8.99,-4.91 -0.11,-0.09 -0.21,-0.09 -0.21,-0.09 -7.59,-5.6 -26.39,-19.4 -29.1,-21.41 -3.4,-2.6 -14.5,-17.9 -21.3,-21.29 -6.79,-3.41 -28.89,-13.61 -28.89,-13.61 l -81.7,-46.8 -10.21,1.7 -20.5,-7.7 -6.79,-2.5 h -5.91 l -6.8,-2.59 -5.99,-4.2 h -5.1 l -11.1,-7.71 c 0,0 -9.3,-10.19 -13.61,-13.59 l -13.59,-11.1 -8.51,-5.9 c 0,0 -1.7,-1.7 -9.39,-5.11 -7.61,-3.4 -7.61,-3.4 -7.61,-3.4 l -3.4,-1.7 -2.6,9.31 c 0,0 10.2,16.99 19.6,23 9.41,5.89 0,-2.6 9.41,5.89 9.29,8.61 15.29,10.31 15.29,10.31 0,0 1.7,2.5 11.91,11.89 10.19,9.31 3.39,3.4 10.19,9.31 1.5,1.4 2.21,1.99 2.4,2.2 0.1,0.09 0.1,0.09 0.1,0.09 0.61,0.6 1.81,1.61 4.31,3.7 10.19,8.5 15.29,12.81 15.29,12.81 l 10.21,6.79 5.99,3.8 c 8.51,8.1 13.6,11.5 13.6,11.5 l 7.7,5.91 11.9,8.59 8.5,5.9 9.4,6 c 0,0 0.81,-1.7 8.5,5.9 7.61,7.7 114.9,74.7 120.8,81.2 6.01,6.5 12.8,9.91 12.8,9.91 l 11.11,10.2 16.09,12.79 16.2,11.9 12.81,10.2 c 0,0 1.69,5.11 13.59,13.6 11.9,8.5 11.9,8.5 11.9,8.5 l 11.11,6 7.59,5.9 11.11,4.3 14.39,9.4 11.11,7.61 c 0,0 -1.7,0 8.49,7.7 10.21,7.59 5.1,3.39 10.21,7.59 0.29,0.31 0.59,0.5 0.8,0.6 0.1,0.1 0.29,0.3 0.59,0.5 2.5,1.8 7.9,5.8 12.31,8.3 5.9,3.41 5.9,3.41 5.9,3.41 l 11.89,5.99 6.01,4.2 c 0,0 100.4,60.4 107.19,63 6.8,2.5 6.8,2.5 6.8,2.5 l 6.81,4.31 5.1,5.99 13.7,11 14.39,9.4 13.61,11.9 12.8,11.9 c 0,0 17.9,6.8 23.8,10.2 5.99,3.41 5.99,3.41 5.99,3.41 l 8.51,4.29 6.8,3.41 13.59,11.9 13.6,8.5 6.91,7.7 10.19,8.49 7.6,5.1 c 0,0 7.71,7.71 8.51,11.9 l -11.91,5.1 -22.1,-6.79 -15.3,-9.4 c 0,0 -20.39,-13.61 -25.6,-17.81 -5.09,-4.29 -222.1,-146.39 -222.1,-146.39 l -54.4,-34.11 c 0,0 -9.39,-2.5 -16.19,-8.5 -6.81,-5.89 -20.4,-13.59 -20.4,-13.59 l -10.3,-10.2 -14.41,-9.4 c 0,0 -6.8,-7.61 -18.7,-12.7 -11.99,-5.11 6.81,10.2 -11.99,-5.11 -18.7,-15.29 -21.2,-16.99 -28.01,-21.3 -6.89,-4.3 -1.8,-2.59 -18.8,-11.9 -16.99,-9.39 -8.5,-1.69 -28.09,-15.3 -5.61,-3.89 -6.8,-5.1 -6.3,-5.1 -0.9,-0.49 -1.91,-1.09 -3,-1.69 -11.31,-6.21 -15.4,-8.6 -16.6,-9.6 0.09,0.09 0.19,0.09 0.29,0.09 l -20.29,-16.1 c 0,0 -3.4,-9.3 -7.71,-12.7 -4.2,-3.39 -6.8,-6 -15.29,-10.29 -6.2,-3.01 -6.1,-3.5 -5.61,-3.5 -1.5,-0.4 -6.1,-1.7 -8.89,-3.31 -7.61,-4.19 -12.71,-11 -20.4,-14.39 -7.6,-3.41 -15.31,-8.51 -15.31,-8.51 l -15.3,-13.7 -40,-25.49 c 0,0 -8.5,-5.11 -13.59,-7.71 -5.11,-2.5 -9.41,-5.1 -17.1,-11.89 -3.51,-3.11 -3.21,-3.21 -2.9,-3.21 -0.4,-0.3 -1.6,-1.19 -4.71,-3.6 -10.2,-7.59 -10.2,-7.59 -10.2,-7.59 l -5.99,-7.71 c 0,0 -9.41,-6.8 -13.6,-6.8 h -1.8 c 0,0 -0.4,0 -2.5,0 -5.11,0 2.6,17.01 9.39,21.7 6.8,4.71 12.81,8.1 12.81,8.1 l 13.59,11 15.3,14.5 6.81,5.1 5.99,4.31 7.6,4.2 10.21,7.7 c 0,0 9.6,6.49 13.7,10.2 10.99,10.2 136.09,99.6 136.09,99.6 l 6.01,5.09 c 5.1,4.2 7.6,5.91 7.6,5.91 0,0 6.79,5.2 19.6,15.39 12.8,10.2 20.4,14.41 20.4,14.41 l 9.39,5.99 7.71,6.8 10.99,6.81 8.51,5.99 7.69,3.41 c 0,0 4.3,0.8 11.11,6.79 2.4,2.11 2.9,2.6 2.9,2.7 0.4,0.4 1.39,1.2 3.89,3.21 8.5,6.79 1.7,0 8.5,6.79 6.81,6.91 6.81,6.91 6.81,6.91 l 10.19,7.59 8.51,6.81 c 0,0 -0.8,0.89 6.79,5.09 7.7,4.31 7.7,4.31 7.7,4.31 l 10.2,7.59 5.9,5.11 6.01,6 7.6,5 c -0.21,-0.51 -0.4,-1.6 5.99,2.69 7.71,5.1 7.71,5.1 7.71,5.1 l 8.49,3.4 6,4.2 c 0,0 2.5,1.71 7.61,4.3 l 15.29,6.81 c 0,0 91.9,54.49 96.2,57.9 4.31,3.39 0,0 8.51,5.89 8.49,6.01 8.49,6.01 8.49,6.01 l 11.91,6.79 13.7,7.6 15.9,11.01 c -1.11,-0.4 -5.31,-1.9 12.1,9.49 19.6,12.7 19.6,12.7 19.6,12.7 l 11.09,9.4 11.01,6.8 12.8,6.01 14.49,6.79 16.1,8.5 12.81,7.61 13.59,6.9 10.21,5.09 c 0,0 1.7,2.5 7.69,7.61 6.01,5.09 6.01,5.09 6.01,5.09 l 8.49,4.3 c 0,0 2.5,2.5 7.6,4.2 0,0 6.81,4.31 11.1,6.81 l 11.91,8.59 9.39,5.9 76.6,42.61 c 0,0 -0.89,-0.91 6.8,3.39 1.51,0.8 2.21,1.2 2.5,1.41 l -0.29,-0.31 c 0.59,0.31 1.99,1.2 5.39,3.1 6.1,3.5 8.01,4.6 8.3,4.8 l 12.21,6.31 18.7,11.1 c 0,0 1.7,-0.9 12.69,7.59 11.11,8.5 11.11,8.5 11.11,8.5 0,0 6.79,0 13.59,7.7 6.81,7.61 6.81,7.61 6.81,7.61 0,0 5.5,0 5.5,3.6 0,1.49 -1.01,3.59 -3.8,6.69 -9.31,10.2 -19.51,10.2 -25.5,5.9 -6.01,-4.2 0.9,1.7 -6.01,-4.2 -6.79,-6 -12.69,-7.7 -12.69,-7.7 l -6.01,-2.59 -10.99,-5.91 -7.71,-3.4 -11.89,-4.3 c 0,0 -19.6,-13.6 -22.1,-15.3 -2.6,-1.69 -173.7,-105.49 -173.7,-105.49 l -6.8,-3.41 c 0,0 -23.81,-11.9 -34.9,-16.19 -11.01,-4.31 -16.11,-6.81 -16.11,-6.81 l -12.8,-10.2 -10.2,-4.3 -16.2,-9.29 c 0,0 -8.49,-0.91 -15.3,-6 -6.8,-5.11 0,-1.7 -6.8,-5.11 -6.79,-3.4 -6.79,-3.4 -6.79,-3.4 l -10.21,-6 -14.5,-9.29 -11.89,-7.7 c 0,0 5.09,0.89 -7.71,-5.11 -4.2,-1.99 -5.2,-2.39 -5.2,-2.5 -0.89,-0.49 -3.1,-1.5 -7.5,-3.39 -9.59,-4.31 -12.5,-5.71 -13.1,-6.1 l -0.2,-0.11 -14.8,-6.6 -10.2,-5.1 -6.79,-4.3 -8.61,-4.2 -19.5,-14.49 -14.5,-6 -9.39,-6.81 c 0,0 -5.9,-2.5 -14.41,-8.5 -8.5,-5.9 -0.9,0.91 -8.5,-5.9 -7.7,-6.8 -7.7,-6.8 -7.7,-6.8 l -12.79,-10.3 -5.9,-3.39 -6.81,-5.91 -11.89,-8.5 -11.11,-5.1 -11.1,-8.5 -7.6,-3.39 -10.19,-5.21 -9.41,-4.19 -8.49,-3.41 6.79,17.9 c 0,0 4.2,3.41 7.71,8.5 l 13.59,13.6 17,11.91 c 0,0 5.9,2.59 26.4,16.99 20.4,14.51 23.8,17.9 23.8,17.9 l 11.1,8.51 c 0,0 3.4,5.09 13.61,10.2 10.19,5.09 10.19,5.09 10.19,5.09 0.4,0.31 2.4,1.2 10.21,5.11 11.89,6 11.89,6 11.89,6 l 10,6.7 c -2,-0.51 -20.9,-5 13,11.19 35.7,17 40,17.8 40,17.8 l 6.01,5.1 5.89,3.41 c 9.41,6.9 12.81,8.59 12.81,8.59 l 22.1,15.3 c 0,0 7.69,4.21 11.09,6.8 3.41,2.5 81.7,43.4 87.61,48.5 5.99,5.1 11.99,7.71 11.99,7.71 0,0 12.7,5.89 22.9,11 10.21,5.09 0.91,0.89 10.21,5.09 9.39,4.31 9.39,4.31 9.39,4.31 l 7.7,5.89 5.1,3.8 c 0,0 0.1,0.11 0.21,0.11 1.39,0.69 4.79,2.7 12.5,7.19 20.5,11.9 25.59,16.2 25.59,16.2 l 7.6,5.11 6.01,3.39 c 0,0 -0.9,-2.6 10.19,5.1 11.11,7.6 11.11,7.6 11.11,7.6 l 12.69,7.71 20.51,11.89 9.3,6.01 c 0,0 20.4,11 25.49,15.29 5.21,4.31 -8.49,-2.59 5.21,4.31 13.59,6.79 15.29,10.29 15.29,10.29 0,0 1.7,-8.4 11.91,0 10.19,8.4 10.19,8.4 10.19,8.4 0,0 21.3,20.41 26.41,23 5.1,2.5 113.19,62.11 113.19,62.11 l 10.21,5.1 7.59,4.2 11.11,7.7 16.99,10.2 11.9,8.49 c 0,0 1.7,2.61 6,6.81 0,0 -2.5,0.89 6.01,12.8 2.99,4.29 1.2,4.59 -1.51,3.79 0.7,0.41 1.41,0.8 2.31,1.3 15.29,8.2 6.6,6.31 5.4,6.31 0.29,0.3 1.79,0.9 5.69,2.19 17,6 17,6 17,6 l 2.6,5.91 c 0,0 0.8,3.4 17,16.2 16.11,12.79 17.8,16.19 17.8,16.19 -2.5,5.11 -12.7,5.11 -12.7,5.11 0,0 23.01,15.29 -7.7,-3.41 -30.59,-18.69 -38.3,-21.3 -38.3,-21.3 0,0 -13.6,-7.7 -27.19,-12.79 -13.61,-5.11 -21.3,-11.01 -21.3,-11.01 0,0 1.7,3.4 -14.5,-6.8 -16.11,-10.19 -23.8,-15.39 -23.8,-15.39 0,0 -2.5,-3.4 -9.31,-5.1 -6.89,-1.7 -6.89,-1.7 -6.89,-1.7 l -6.8,-1.71 -11.01,-5.1 -13.59,-5.1 c 0,0 -16.6,-12.5 -11.1,0.9 9.39,23.01 -17.01,5.9 0.8,17.01 17.9,11.09 22.99,12.79 22.99,12.79 l 9.41,5.11 9.3,5.89 c 0,0 0,0.9 15.4,8.5 15.3,7.71 15.3,7.71 15.3,7.71 0,0 6.8,7.7 30.59,16.19 23.8,8.5 26.4,9.3 26.4,9.3 l 6.81,6.01 11.09,5.9 8.51,5.1 c 0,0 0.8,0 12.79,8.59 2.9,2.11 5.2,3.6 7.1,4.91 0.11,0 0.11,0 0.11,0 0.09,0.09 0.19,0.09 0.29,0.19 0.2,0.1 0.3,0.2 0.4,0.2 l 0.21,0.11 c 0.09,0.09 0.3,0.09 0.49,0.29 0.1,0 0.21,0.11 0.31,0.11 0.19,0.09 0.4,0.29 0.59,0.29 3,1.81 4.2,2.3 4.71,2.3 -0.4,-0.2 -1.2,-0.6 -2.21,-1.09 2.31,1 5.61,2.5 10.1,4.59 28.91,13.6 34,16.1 34,16.1 0,0 36.6,25.6 34.1,27.3 -2.59,1.7 -45.09,-9.4 -12.8,0 32.31,9.31 38.3,11.91 38.3,11.91 l 9.41,4.2 9.29,3.5 10.2,3.4 10.2,5.09 11.11,5.91 13.59,6.79 11.91,4.31 12.8,5.9 13.59,8.6 13.61,5.9 14.5,7.69 5.99,10.2 5.9,4.21 12.81,1.7 19.59,6 c 0,0 2.5,1.7 7.6,6 l 15.31,11.89 c 0,0 2.59,3.4 6.89,8.5 4.21,5.11 4.21,5.11 4.21,5.11 l 18.69,9.3 c 0,0 2.61,-1.7 13.6,1.7 11.11,3.5 11.11,3.5 11.11,3.5 l 10.19,5.09 10.21,4.2 c 0,0 3.4,4.3 13.7,2.6 10.19,-1.69 10.19,-1.69 10.19,-1.69 l 5.9,-11.9 20.4,-3.5 c 0,0 5.21,-4.2 12.81,1.7 7.69,6 7.69,6 7.69,6 l 2.5,9.8 c 0,0 -5.9,-5.51 -1.7,6.39 2.71,7.5 -1.7,5.51 -3,5 0.4,0.51 1.3,1.31 3,2.61 9.41,7.7 6.01,0.9 9.41,7.7 3.39,6.8 -2.6,-1.7 3.39,6.8 38.31,12.79 32.3,11.09 38.31,12.79 h 8.49 l 8.51,6.8 5.99,2.5 c 5.1,2.61 5.1,2.61 5.1,2.61 h 11.01 l 7.69,4.2 6.81,5.1 11.09,11.99 -5.1,-0.9 5.1,7.7 c 0,0 11.91,3.4 18.7,10.21 6.8,6.8 6.8,6.8 6.8,6.8 l 10.21,3.4 11.09,4.3 c 0,0 6.81,-1.8 0,5.9 -6.8,7.69 -6.8,7.69 -6.8,7.69 l -11.09,1.7 -11.91,-4.3 -26.39,-14.49 c 0,0 -4.2,-2.5 -13.61,-6.8 -5.3,-2.4 -3.49,-0.41 -3.39,0 -0.5,-0.21 -1.91,-1.21 -6.01,-4.2 -7.79,-5.8 -8.19,-5.7 -7.29,-4.8 -4.91,-3.71 -20.71,-16.11 -29.3,-19 -10.21,-3.5 -15.3,-2.61 -21.2,-2.61 -6.01,0 10.19,4.31 -6.01,0 -16.2,-4.29 -2.6,-0.89 -16.2,-4.29 -13.59,-3.4 -3.4,5.2 -13.59,-3.4 -10.21,-8.51 -13.61,-11.91 -13.61,-11.91 l -23,-2.5 h -5.89 c 0,0 6.79,9.3 -8.61,-2.59 -15.3,-11.9 -33.09,-22.1 -33.09,-22.1 l -6.91,-2.6 c 0,0 -17.8,-12.3 -21.2,-8.51 -6.8,7.71 -6.8,7.71 -6.8,7.71 0,0 0,7.6 0,10.19 0,2.61 3.4,13.6 3.4,13.6 l 6.8,6.8 31.5,11.91 6.7,3.89 c -0.19,-0.1 -0.3,-0.2 -0.4,-0.39 0.9,0.29 4.3,1.89 12.41,5.89 22.09,11.11 30.59,13.61 30.59,13.61 l 10.21,0.89 16.2,6.8 c 0,0 4.29,1.7 15.29,7.61 11.1,6 6.01,-1.7 11.1,6 5.1,7.7 5.1,7.7 5.1,7.7 l 0.9,7.59 8.51,9.4 c 0,0 2.5,-4.3 10.19,6.81 7.61,11 -1.7,0.8 7.61,11 9.39,10.29 1.7,3.5 9.39,10.29 7.71,6.8 14.5,10.2 14.5,10.2 l 24.6,7.6 15.4,2.61 h 8.5 l 5.9,-0.9 1.71,-12.71 c 0,0 5.99,-11.89 15.4,-10.2 9.3,1.7 11.89,3.4 11.89,3.4 l 11.51,4.2 7.79,15 v 0.1 c 0,0.41 0.21,1.8 1.1,6.21 1.7,8.5 -1.7,0 1.7,8.5 2,5 -1.79,-0.2 -2.69,-1.21 0.29,0.7 1.99,3.2 6.09,9.7 13.6,21.31 15.3,27.21 15.3,27.21 l 5.1,5.2 c 6.01,3.39 5.1,5.09 11.91,5.09 6.79,0 10.3,0 10.3,0 0,0 65.5,19.51 68.9,21.21 3.39,1.7 20.4,8.5 20.4,8.5 l 11.09,2.59 11.01,4.3 8.6,5.1 7.6,1.71 19.6,1.69 c 0,0 1.7,-10.19 8.49,2.5 6.81,12.81 6.81,12.81 6.81,12.81 l 3.4,9.3 7.69,6.89 11.01,5.1 11.89,2.5 14.5,2.6 10.2,3.4 10.21,5.1 9.39,5.11 c 0,0 -9.39,5.1 6.01,5.9 15.3,0.9 20.4,0.9 20.4,0.9 l 14.5,11.09 c 0,0 1.7,1.7 8.49,11.9 6.8,10.21 2.5,5.9 6.8,10.21 10.21,5.9 10.21,5.9 10.21,5.9 0,0 19.6,0.9 27.19,5.99 7.71,5.11 -1.7,-1.7 5.1,2.61 6.81,4.19 -2.5,5.09 6.81,4.19 9.39,-0.8 9.39,-0.8 9.39,-0.8 h 14.5 c 0,0 3.4,-2.59 5.9,0 0,0 8.51,5.9 13.61,10.2 5.09,4.2 5.09,4.2 5.09,4.2 l 6.91,3.4 h 5.9 c 0,0 3.39,2.61 8.49,3.41 5.1,0.9 5.1,0.9 5.1,0.9 0,0 11.1,8.5 17.1,11.1 5.91,2.5 11.01,3.4 11.01,3.4 l 9.39,3.39 c 0,0 3.41,0 7.61,8.5 4.29,8.5 1.7,5.1 4.29,8.5 l 12.81,5.91 8.49,4.3 12.71,5.09 c 0,0 4.3,1.7 10.19,6.81 2.5,2.1 2.01,1.99 1.4,1.79 0.7,0.6 2.1,1.6 4.6,3.3 11.1,7.7 -13.59,6.8 6.01,7.7 19.5,0.8 -3.4,0 11.89,0.8 15.3,0.9 15.3,0.9 15.3,0.9 l 7.71,3.41 10.19,2.5 c 0,0.1 1.11,0.69 15.31,4.29 17,4.21 6.79,0 17,4.21 10.19,4.29 10.19,4.29 10.19,4.29 l 10.21,8.5 c 0,0 -2.5,0 8.49,3.4 11.11,3.41 11.11,3.41 11.11,3.41 0,0 1.7,3.39 15.29,5.09 13.6,1.7 1.7,1.7 13.6,1.7 12.01,0 12.01,0 12.01,0 0,0 -0.9,-9.29 14.39,3.41 15.3,12.8 3.4,3.4 15.3,12.8 12.01,9.39 14.51,6 12.01,9.39"
         style="fill:#1f1f1e;fill-opacity:1;fill-rule:nonzero;stroke:none"
         id="path28" />
      <path
         d="m 5221.84,3334.77 c -2.6,3.4 21.2,-6 0,0 v 0"
         style="fill:#a5d943;fill-opacity:1;fill-rule:nonzero;stroke:none"
         id="path30" />
      <path
         d="m 57.5391,1430.05 -30.6368,-32.34 1.6993,-10.21 -11.9141,-30.64 c 0,0 -1.7031,-5.11 0,-17.02 1.707,-11.92 1.707,-11.92 1.707,-11.92 v 0 c 0,0 5.1016,-15.31 1.6993,-28.93 -3.4063,-13.62 -3.4063,-13.62 -3.4063,-13.62 0,0 -3.4023,-3.4 -1.7031,-10.21 l -5.10159,-20.43 c 0,0 -68.08591,-442.64 153.18719,-701.32 0,0 -166.80438,170.262 -134.4684,687.71 0,0 17.0234,5.1 18.7265,10.21 1.6992,5.11 10.211,22.13 10.211,22.13 0,0 5.1054,25.53 0,32.33 -5.1016,6.82 3.4062,22.13 0,27.24 -3.4024,5.11 1.7031,1.7 0,11.91 -1.6993,10.22 0,23.83 0,23.83 0,0 -5.1016,-8.5 0,15.32 5.1054,23.83 5.1054,23.83 5.1054,23.83 0,0 -6.8047,-11.91 0,0 6.8125,11.92 6.8125,11.92 6.8125,11.92 l -11.9179,10.21"
         style="fill:#211d1d;fill-opacity:1;fill-rule:nonzero;stroke:none"
         id="path32" />
      <path
         d="m 239.668,1702.4 c 0,5.1 15.316,69.78 15.316,69.78 l 17.024,19.89 17.019,12.45 17.024,18.73 13.617,13.61 c 0,0 -5.109,3.41 13.617,8.51 18.723,5.11 3.403,13.62 18.723,5.11 15.32,-8.51 27.234,1.7 17.019,-17.02 -10.211,-18.73 -17.019,-30.64 -17.019,-30.64 0,0 -10.211,-4.47 -6.809,-10.75 3.403,-6.27 -1.703,5.64 3.403,-6.27 5.109,-11.92 8.511,-7.55 8.511,-7.55 l 1.703,-21.39 c 0,0 3.407,-1.7 -5.105,-17.02 -8.512,-15.32 -13.617,-37.44 -13.617,-37.44 0,0 3.402,6.8 1.703,-13.62 -1.703,-20.43 -1.703,-20.43 -1.703,-20.43 0,0 -1.699,-15.32 -1.699,-25.53 0,-10.21 1.699,5.1 0,-10.21 -1.707,-15.32 -1.707,-15.32 -1.707,-15.32 v -15.32 l -11.915,-17.03 -18.519,-120.85 v -17.02 c 0,0 3.203,3.41 -12.117,-17.02 l -28.938,-35.74 -6.804,-17.02 -18.727,-27.24 v -13.61 c 0,0 -11.914,-10.22 -17.023,-11.92 -5.106,-1.7 -17.02,-6.81 -17.02,-6.81 l -23.828,-1.7 -18.727,6.81 c 0,0 8.512,8.51 0,20.43 -8.511,11.91 0,23.82 0,23.82 0,0 6.055,-20.42 -3.777,11.92 -9.836,32.34 -9.836,32.34 -9.836,32.34 l 1.699,18.72 -11.914,10.22 -1.703,17.02 c 0,0 1.703,3.4 1.703,17.02 0,13.61 0,13.61 0,13.61 0,0 -1.703,1.71 1.703,20.43 3.407,18.72 -6.808,-3.41 3.407,18.72 10.207,22.13 14.941,28.94 14.941,28.94 l 3.777,15.32 v 13.72 l 10.215,18.62 6.809,30.64 c 11.914,18.72 15.32,32.76 15.32,32.76 l 13.613,11.49 11.918,15.32 18.723,8.52"
         style="fill:#211d1d;fill-opacity:1;fill-rule:nonzero;stroke:none"
         id="path34" />
      <path
         d="m 1360.52,1351.33 -141.7,-95.74 -49.79,-22.98 c 0,0 -7.66,-1.28 -14.04,0 -6.39,1.27 -6.39,1.27 -6.39,1.27 l -10.17,-1.85 -16.63,-7.09 c -6.39,-2.54 -11.49,-3.82 -11.49,-3.82 h -7.66 c 0,0 -6.39,-12.77 -14.05,-7.66 -7.65,5.11 -7.65,12.76 -7.65,12.76 0,0 24.25,1.28 2.55,7.66 -21.7,6.39 -25.54,3.83 -25.54,3.83 l -12.76,-7.66 c 0,0 -19.15,-12.63 -24.25,-17.8 l -17.88,-11.56 c 0,0 3.83,2.56 -7.656,-6.38 -11.488,-8.94 -21.703,-15.32 -21.703,-15.32 0,0 1.273,2.56 -12.766,-5.11 -14.043,-7.66 -8.937,-5.11 -8.937,-5.11 0,0 -14.141,-7.65 -20.477,-10.2 l -13.992,-10.22 h 21.703 c 0,0 -2.652,6.38 -7.711,-10.21 -5.058,-16.59 -13.992,-21.7 -13.992,-21.7 l 7.66,-10.22 -15.316,-19.15 -11.488,-14.04 1.273,-10.21 c 0,0 11.488,2.55 22.977,7.66 11.492,5.11 11.492,5.11 11.492,5.11 v 0 l -12.766,-25.54 -5.105,-7.65 c -1.282,-8.94 5.105,-8.94 5.105,-8.94 14.043,3.83 20.426,8.94 20.426,8.94 0,0 -6.383,1.27 10.211,6.37 16.594,5.11 16.594,5.11 16.594,5.11 0,0 -10.207,-12.76 -15.317,-20.42 -5.105,-7.67 -6.383,-6.39 -8.933,-11.49 -2.555,-5.11 -7.664,-11.49 -7.664,-11.49 l 7.664,-2.56 h 14.043 l 15.316,8.94 11.488,5.11 10.215,2.55 3.828,-16.6 -16.597,-8.932 -12.762,-7.078 c 0,0 -3.422,-3.469 -7.66,-8.238 -10.215,-11.492 -12.766,-3.832 -10.215,-11.492 2.551,-7.66 2.551,-7.66 2.551,-7.66 0,0 -1.274,-3.829 11.492,-3.829 12.765,0 8.933,0 8.933,0 0,0 1.282,-1.269 7.661,-3.832 6.382,-2.55 3.828,-11.488 3.828,-11.488 0,0 8.804,4.699 11.492,0 5.105,-8.93 5.105,-8.93 5.105,-8.93 l -1.27,-11.5 -11.491,-6.359 c 0,0 -6.383,-1.293 -17.871,-5.121 -11.493,-3.832 -11.493,-3.832 -11.493,-3.832 l -7.66,-8.938 49.785,6.379 20.43,11.512 h 12.76 c 0,0 -5.1,-1.273 11.49,0 16.6,1.258 10.21,0 10.21,0 0,0 -1.27,-1.293 20.43,6.359 21.7,7.668 3.83,2.559 15.32,5.11 11.49,2.558 11.49,2.558 11.49,2.558 l 14.04,3.832 c 0,0 2.56,3.829 10.22,3.829 0,0 3.91,-2.559 8.97,-7.661 5.07,-5.109 5.07,-5.109 5.07,-5.109 0,0 -7.58,-7.66 -5.07,-12.77 2.52,-5.101 0,-8.941 0,-8.941 -3.87,-17.867 0.05,-17.867 0,-21.699 -0.04,-3.82 -0.04,-3.82 -0.04,-3.82 l 15.32,2.55 14.04,10.211 c 0,0 3.83,1.278 17.87,7.66 14.05,6.379 -2.55,2.559 14.05,6.379 16.59,3.828 16.59,3.828 16.59,3.828 l 17.88,7.684 15.32,15.297 15.32,6.391 c 0,0 1.2,-2.559 16.55,7.652 15.36,10.219 0.04,1.277 15.36,10.219 15.32,8.929 2.55,3.828 15.32,8.929 12.77,5.11 -2.55,-3.82 12.77,5.11 15.31,8.941 -1.28,2.55 15.31,8.941 16.6,6.379 16.6,6.379 16.6,6.379 l 12.77,4.41 14.04,13.46 c 0,0 0,3.83 12.76,10.22 12.77,6.38 12.77,6.38 12.77,6.38 0,0 -2.56,0 6.38,11.49 8.94,11.48 2.55,5.11 8.94,11.48 6.38,6.39 2.55,-1.27 6.38,6.39 3.83,7.66 -3.83,3.83 3.83,7.66 7.66,3.83 -15.32,-7.66 0,0 15.32,7.66 7.66,2.56 15.32,7.66 7.66,5.1 -1.28,0 7.66,5.1 8.93,5.11 2.55,-1.27 8.93,5.11 6.39,6.39 -11.48,-11.49 0,0 11.49,11.49 10.22,6.39 11.49,11.49 1.28,5.11 0,0 0,0 l 5.11,8.94 -6.38,18.5 c 0,0 -2.55,9.58 -5.11,13.41 -2.55,3.83 0,6.39 -12.76,5.11 -12.77,-1.28 -14.04,-6.39 -12.77,-1.28 1.28,5.11 0,0 0,0 0,0 2.55,7.66 3.83,11.49 0,0 -10.21,-3.83 5.11,14.05 15.32,17.87 7.66,10.2 7.66,10.2 0,0 15.31,10.22 20.42,15.32 12.77,12.77 6.39,1.28 12.77,12.77 6.38,11.49 1.27,1.28 6.38,11.49 5.11,10.22 1.28,-3.83 5.11,10.22 3.83,14.04 5.11,11.48 3.83,14.04 -1.28,2.55 2.55,-15.32 1.28,-2.56 -1.28,12.77 -1.28,12.77 -1.28,12.77 v 0 h -11.49 c 0,0 -6.38,0 -10.21,-6.38 0,0 1.27,-5.11 -6.39,-16.6 -7.66,-11.49 -7.66,-11.49 -7.66,-11.49 l -14.04,-8.93 -12.77,-6.39 -8.93,-6.38 c -12.77,-11.49 -12.77,-11.49 -12.77,-11.49 v 0 l 5.11,16.59 7.66,10.22 c 0,0 8.93,0 7.66,10.21 0,0 7.66,16.59 -5.11,10.22 -12.76,-6.39 -2.55,6.37 -12.76,-6.39 -10.22,-12.76 -10.22,-12.76 -10.22,-12.76 0,0 -1.27,-5.11 -10.21,-12.77 -8.94,-7.66 -8.94,-7.66 -8.94,-7.66 0,0 -2.55,-8.94 -14.04,-17.88 -11.49,-8.93 2.55,2.56 -11.49,-8.93 -14.04,-11.49 -5.1,-3.83 -14.04,-11.49 -8.94,-7.66 -8.94,-7.66 -8.94,-7.66 l -12.76,-7.66 -14.04,-13.41 c 0,0 -2.56,1.92 -11.49,-8.29 -8.94,-10.21 0,-6.38 -8.94,-10.21 -8.94,-3.83 -2.55,0 -8.94,-3.83 -6.38,-3.83 0,0 0,0 l -6.38,8.94 2.55,13.39 c 0,0 8.94,4.48 16.6,13.41 7.66,8.94 1.28,3.83 7.66,8.94 6.38,5.11 6.38,5.11 6.38,5.11 0,0 -5.11,-3.83 7.66,8.93 12.77,12.76 12.77,12.76 12.77,12.76 0,0 0,2.56 10.21,10.22 10.21,7.66 10.21,7.66 10.21,7.66 0,0 -1.27,0 8.94,8.93 10.21,8.94 10.21,8.94 10.21,8.94 0,0 0,-1.27 10.22,7.66 10.21,8.94 10.21,8.94 10.21,8.94 0,0 -6.38,1.28 6.38,10.21 12.77,8.94 12.77,8.94 12.77,8.94 0,0 3.82,3.83 8.93,8.93 0,0 9.73,9.88 14.05,11.49 10.21,3.83 10.21,3.83 10.21,3.83 l 8.94,2.56 c 0,0 0,0 11.48,8.93 11.49,8.94 6.39,2.55 11.49,8.94 5.11,6.38 -7.66,-8.94 5.11,6.38 12.77,15.32 -5.11,-8.93 6.38,7.66 11.49,16.59 -2.55,-14.04 6.39,7.66 8.93,21.7 -3.83,0.85 1.27,13.19 5.11,12.34 3.24,10.69 -1.27,9.78 -6.39,-1.27 -6.39,-1.27 -6.39,-1.27 l -8.93,-8.51 -20.43,-23.4 -8.94,-7.67 -15.31,-1.27 c 0,0 -3.83,1.27 2.55,15.32 6.38,14.04 6.38,14.04 6.38,14.04 v 0 l -15.32,8.94 c -28.08,19.15 -38.3,20.43 -38.3,20.43 -8.93,0 -8.93,0 -8.93,0 v 0 l -10.21,2.54 -20.43,6.39"
         style="fill:#211d1d;fill-opacity:1;fill-rule:nonzero;stroke:none"
         id="path36" />
      <path
         d="m 912.008,1605.37 c 5.105,1.7 0,0 5.105,1.7 5.11,1.7 0,0 0,0 0,0 7.922,1.47 11.914,5.96 6.813,7.66 4.258,3.41 6.813,7.66 2.555,4.25 0,0 0,0 l 5.105,8.51 c 1.7,6.81 4.254,1.7 1.7,6.81 -2.551,5.11 0,0 0,0 l -4.25,10.21 -11.067,0.85 c 0,0 -6.812,-0.85 -9.363,-4.25 0,0 -5.957,-4.25 -6.809,-6.81 l -3.402,-8.51 -4.258,-6.81 c 0,0 -9.359,1.02 -5.101,-4.16 l 6.804,-6.9 2.555,-4.26 h 4.254"
         style="fill:#211d1d;fill-opacity:1;fill-rule:nonzero;stroke:none"
         id="path38" />
      <path
         d="m 3065.83,3093.88 c 0,0 -68.9,-15.31 -65.1,-62.5 0,0 -15.5,53.59 32.5,74 47.9,20.39 32.6,-11.5 32.6,-11.5 z m -6.19,31.89 c -43.7,0 -79.1,-35.39 -79.1,-79.1 0,-43.69 35.4,-79.2 79.1,-79.2 43.69,0 79.2,35.51 79.2,79.2 0,43.71 -35.51,79.1 -79.2,79.1"
         style="fill:#211d1d;fill-opacity:1;fill-rule:nonzero;stroke:none"
         id="path40" />
      <g
         id="g42">
        <g
           id="g44"
           clip-path="url(#clipPath48)">
          <path
             d="m 3246.96,203.859 c 0,-24.519 -19.89,-44.41 -44.41,-44.41 h -127.42 c -24.54,0 -44.43,19.891 -44.43,44.41 v 127.422 c 0,24.528 19.89,44.43 44.43,44.43 h 127.42 c 24.52,0 44.41,-19.902 44.41,-44.43 V 203.859"
             style="fill:url(#radialGradient60);fill-opacity:1;fill-rule:nonzero;stroke:none"
             id="path62" />
        </g>
      </g>
      <path
         d="m 3204.73,242.289 c 0,-22.43 -18.19,-40.609 -40.6,-40.609 h -50.59 c -22.43,0 -40.61,18.179 -40.61,40.609 v 50.57 c 0,22.43 18.18,40.61 40.61,40.61 h 50.59 c 22.41,0 40.6,-18.18 40.6,-40.61 z m -34.59,106.832 h -62.6 c -27.76,0 -50.26,-22.5 -50.26,-50.25 V 236.27 c 0,-27.739 22.5,-50.239 50.26,-50.239 h 62.6 c 27.75,0 50.24,22.5 50.24,50.239 v 62.601 c 0,27.75 -22.49,50.25 -50.24,50.25"
         style="fill:#ffffff;fill-opacity:1;fill-rule:nonzero;stroke:none"
         id="path64" />
      <path
         d="m 3141.03,241.449 c -14.29,0 -25.86,11.571 -25.86,25.84 0,14.293 11.57,25.852 25.86,25.852 14.26,0 25.83,-11.559 25.83,-25.852 0,-14.269 -11.57,-25.84 -25.83,-25.84 z m 0,68.801 c -23.75,0 -42.97,-19.23 -42.97,-42.961 0,-23.711 19.22,-42.957 42.97,-42.957 23.72,0 42.94,19.246 42.94,42.957 0,23.731 -19.22,42.961 -42.94,42.961"
         style="fill:#ffffff;fill-opacity:1;fill-rule:nonzero;stroke:none"
         id="path66" />
      <path
         d="m 3191.93,310.922 c 0,-6.031 -4.9,-10.93 -10.92,-10.93 -6.04,0 -10.92,4.899 -10.92,10.93 0,6.039 4.88,10.93 10.92,10.93 6.02,0 10.92,-4.891 10.92,-10.93"
         style="fill:#ffffff;fill-opacity:1;fill-rule:nonzero;stroke:none"
         id="path68" />
      <path
         d="m 3270.31,227.859 v 16.02 l 21.66,41.762 h -19.89 v 16.218 h 41.76 v -17.211 l -21.58,-40.769 h 22.71 v -16.02 h -44.66"
         style="fill:#100f0d;fill-opacity:1;fill-rule:nonzero;stroke:none"
         id="path70" />
      <path
         d="m 3346.57,227.859 h -21.37 v 74 h 21.37 z m -21.37,89.59 v 17 h 21.37 v -17 h -21.37"
         style="fill:#100f0d;fill-opacity:1;fill-rule:nonzero;stroke:none"
         id="path72" />
      <path
         d="M 3381.84,279.289 V 250.23 c 0,-3.011 0.36,-4.992 1.09,-5.929 0.73,-0.942 2.15,-1.41 4.27,-1.41 2.07,0 3.45,0.468 4.16,1.41 0.7,0.937 1.05,2.918 1.05,5.929 v 29.059 c 0,3.012 -0.35,4.992 -1.05,5.961 -0.71,0.961 -2.09,1.441 -4.16,1.441 -2.12,0 -3.54,-0.492 -4.27,-1.472 -0.73,-1 -1.09,-2.969 -1.09,-5.93 z m -21.38,-78.449 v 101.019 h 20.39 v -8.961 c 1.87,3.532 4.21,6.122 6.98,7.762 2.78,1.649 6.18,2.469 10.23,2.469 5.97,0 10.2,-1.789 12.7,-5.359 2.49,-3.579 3.73,-9.782 3.73,-18.629 v -28.559 c 0,-8.941 -1.19,-15.172 -3.59,-18.691 -2.4,-3.532 -6.5,-5.301 -12.28,-5.301 -3.94,0 -7.26,0.82 -9.94,2.441 -2.68,1.617 -4.96,4.168 -6.84,7.649 v -35.84 h -21.38"
         style="fill:#100f0d;fill-opacity:1;fill-rule:nonzero;stroke:none"
         id="path74" />
      <path
         d="M 3448.99,279.289 V 250.23 c 0,-3.011 0.37,-4.992 1.1,-5.929 0.73,-0.942 2.15,-1.41 4.27,-1.41 2.07,0 3.45,0.468 4.16,1.41 0.7,0.937 1.05,2.918 1.05,5.929 v 29.059 c 0,3.012 -0.35,4.992 -1.05,5.961 -0.71,0.961 -2.09,1.441 -4.16,1.441 -2.12,0 -3.54,-0.492 -4.27,-1.472 -0.73,-1 -1.1,-2.969 -1.1,-5.93 z m -21.37,-78.449 v 101.019 h 20.39 v -8.961 c 1.87,3.532 4.21,6.122 6.98,7.762 2.77,1.649 6.18,2.469 10.22,2.469 5.98,0 10.21,-1.789 12.71,-5.359 2.49,-3.579 3.73,-9.782 3.73,-18.629 v -28.559 c 0,-8.941 -1.19,-15.172 -3.59,-18.691 -2.41,-3.532 -6.5,-5.301 -12.28,-5.301 -3.94,0 -7.26,0.82 -9.94,2.441 -2.69,1.617 -4.96,4.168 -6.85,7.649 v -35.84 h -21.37"
         style="fill:#100f0d;fill-opacity:1;fill-rule:nonzero;stroke:none"
         id="path76" />
      <path
         d="M 3514.59,279.289 V 250.23 c 0,-2.921 0.4,-4.878 1.2,-5.859 0.8,-0.992 2.42,-1.48 4.86,-1.48 2.36,0 3.93,0.488 4.73,1.48 0.8,0.981 1.2,2.938 1.2,5.859 v 29.059 c 0,2.961 -0.39,4.93 -1.16,5.93 -0.78,0.98 -2.36,1.472 -4.77,1.472 -2.39,0 -4,-0.511 -4.83,-1.511 -0.82,-1.02 -1.23,-2.981 -1.23,-5.891 z m -21.93,-5.359 c 0,11.379 1.92,19.09 5.78,23.129 3.85,4.05 11.26,6.07 22.21,6.07 10.91,0 18.31,-2.02 22.19,-6.07 3.88,-4.039 5.82,-11.75 5.82,-23.129 v -18.34 c 0,-11.289 -1.93,-18.949 -5.78,-22.961 -3.86,-4.02 -11.27,-6.039 -22.23,-6.039 -10.95,0 -18.36,2.012 -22.21,6 -3.86,3.992 -5.78,11.66 -5.78,23 v 18.34"
         style="fill:#100f0d;fill-opacity:1;fill-rule:nonzero;stroke:none"
         id="path78" />
      <path
         d="M 3581.75,279.289 V 250.23 c 0,-3.011 0.35,-4.992 1.05,-5.929 0.72,-0.942 2.1,-1.41 4.17,-1.41 2.16,0 3.62,0.48 4.37,1.449 0.75,0.961 1.13,2.922 1.13,5.89 v 29.059 c 0,2.961 -0.36,4.93 -1.09,5.93 -0.74,0.98 -2.15,1.472 -4.27,1.472 -2.12,0 -3.54,-0.492 -4.27,-1.472 -0.73,-1 -1.09,-2.969 -1.09,-5.93 z m 32.1,55.16 v -106.59 h -20.53 v 9.391 c -2.5,-3.859 -5.11,-6.602 -7.83,-8.219 -2.73,-1.621 -6,-2.441 -9.81,-2.441 -5.78,0 -9.9,1.781 -12.34,5.332 -2.45,3.547 -3.67,9.769 -3.67,18.66 v 28.559 c 0,8.8 1.26,14.988 3.78,18.597 2.51,3.59 6.73,5.391 12.65,5.391 3.91,0 7.18,-0.707 9.81,-2.149 2.63,-1.441 4.82,-3.66 6.56,-6.671 v 40.14 h 21.38"
         style="fill:#100f0d;fill-opacity:1;fill-rule:nonzero;stroke:none"
         id="path80" />
      <path
         d="m 3659.49,251 v 28.289 c 0,2.961 -0.37,4.93 -1.09,5.93 -0.73,0.98 -2.16,1.472 -4.27,1.472 -2.12,0 -3.54,-0.492 -4.27,-1.472 -0.73,-1 -1.09,-2.969 -1.09,-5.93 V 251 c 0,-2.961 0.36,-4.93 1.09,-5.93 0.73,-0.988 2.15,-1.468 4.27,-1.468 2.16,0 3.59,0.468 4.3,1.398 0.7,0.949 1.06,2.941 1.06,6 z m 21.37,-21.09 c 0,-11.238 -1.76,-18.91 -5.29,-23.031 -3.53,-4.109 -9.9,-6.168 -19.12,-6.168 -10.82,0 -18.09,1.449 -21.83,4.367 -3.73,2.922 -5.61,8.254 -5.61,16.024 v 0.418 h 18.49 c 0,-2.071 0.43,-3.508 1.3,-4.309 0.87,-0.801 2.41,-1.199 4.62,-1.199 2.4,0 4.01,0.476 4.83,1.41 0.82,0.937 1.24,2.937 1.24,6 v 10.789 c -2.26,-2.301 -4.61,-3.961 -7.06,-4.973 -2.44,-1.008 -5.38,-1.508 -8.82,-1.508 -6.3,0 -10.69,1.711 -13.18,5.141 -2.5,3.43 -3.74,9.707 -3.74,18.828 v 27.442 c 0,8.847 1.24,15.05 3.74,18.629 2.49,3.57 6.72,5.359 12.69,5.359 4.1,0 7.55,-0.828 10.38,-2.5 2.82,-1.668 5.14,-4.25 6.98,-7.731 v 8.961 h 20.38 V 229.91"
         style="fill:#100f0d;fill-opacity:1;fill-rule:nonzero;stroke:none"
         id="path82" />
    </g>
  </g>
</svg>
